<svg xmlns="http://www.w3.org/2000/svg" width="63" height="63"><style/><path id="Forma 1" d="M61 10c.55 0 1-.45 1-1V3c0-.55-.45-1-1-1h-6c-.55 0-1 .45-1 1v5.58L34.02 28.57c-.32-.19-.67-.34-1.04-.43C32.53 15.59 22.41 5.47 9.86 5.02 9.42 3.29 7.87 2 6 2a3.999 3.999 0 100 8c1.85 0 3.4-1.27 3.85-2.98 11.46.44 20.69 9.67 21.13 21.13-1.71.45-2.98 2-2.98 3.85 0 .74.22 1.42.57 2.02L8.59 54H3c-.55 0-1 .45-1 1v6c0 .55.45 1 1 1h6c.55 0 1-.45 1-1v-5.59l19.98-19.98c.54.32 1.16.52 1.83.55l-3.28 17.78a1 1 0 00.52 1.07c.15.08.3.11.46.11.27 0 .53-.1.72-.3l5.35-5.54a23.995 23.995 0 0018.55 9.87c.44 1.74 2 3.03 3.87 3.03a3.999 3.999 0 100-8c-1.85 0-3.39 1.27-3.85 2.97-6.53-.25-12.6-3.38-16.58-8.55l7.67 2.2c.42.11.87-.05 1.11-.42a.99.99 0 00-.08-1.19L34.45 35.14C35.38 34.41 36 33.28 36 32c0-.74-.22-1.43-.57-2.02L55.41 10H61zM6 8c-1.1 0-2-.9-2-2s.9-2 2-2 2 .9 2 2-.9 2-2 2zm52 48c1.1 0 2 .9 2 2s-.9 2-2 2-2-.9-2-2 .9-2 2-2zM56 4h4v4h-4V4zM32 30c1.1 0 2 .9 2 2s-.9 2-2 2c-.55 0-1.05-.23-1.41-.59h-.01c-.36-.36-.58-.86-.58-1.41 0-1.1.9-2 2-2zM8 60H4v-4h4v4zm28.5-13.96c-.36-.1-.74 0-.99.26l-4.41 4.56 2.51-13.61 8.99 10.53-6.1-1.74z" fill="#ffc000"/></svg>