<svg xmlns="http://www.w3.org/2000/svg" width="64" height="57"><style/><path id="Forma 1" d="M59.95 4.05A6.936 6.936 0 0055.01 2c-1.87 0-3.62.73-4.94 2.05L47.2 6.91 25.16 31.37l-4.02 4.46-5.61 6.23a6.11 6.11 0 00-.86-.06h-.41c-2.16 0-6.18 0-6.18 4.92 0 4.94-5.16 7.06-5.38 7.15-.44.17-.7.64-.61 1.11.09.48.5.82.98.82h12.42c1.81 0 3.19-.48 4.13-1.43 1.39-1.42 1.46-3.47 1.44-5.22.06-.04.12-.06.18-.11l6.98-6.32 4.45-4.03h.01l24.45-22.11 2.82-2.83A6.977 6.977 0 0062 9c0-1.87-.73-3.63-2.05-4.95zM27.59 40.8l-4.33-4.34 2.68-2.97 4.62 4.63-2.97 2.68zm-9.4 12.37c-.54.55-1.45.83-2.7.83H6.57c1.72-1.44 3.51-3.74 3.51-7.08 0-2.63 1.34-2.92 4.18-2.92h.41c.35 0 .67.04.99.11.01 0 .01.01.02.01.44.09.85.26 1.22.47.04.02.07.03.11.05.15.09.29.2.43.31.05.04.11.08.16.13.13.11.26.24.37.37.04.04.08.08.12.13.12.14.23.3.33.46.01.01.01.02.02.04.34.57.55 1.22.59 1.93v.02c.01.07.02.13.02.19 0 .23 0 .47.01.72.02 1.54.05 3.29-.87 4.23zm2.71-6.32a6.105 6.105 0 00-3.26-4.15l4.28-4.75 4.18 4.19-5.2 4.71zm37.64-34.32l-2.79 2.8-23.71 21.44-4.76-4.76L48.65 8.29l2.83-2.83A4.97 4.97 0 0155.01 4c1.33 0 2.59.52 3.53 1.46C59.49 6.41 60 7.66 60 9c0 1.33-.52 2.59-1.46 3.53z" fill="#ffc000"/></svg>