<svg xmlns="http://www.w3.org/2000/svg" width="57" height="57"><style/><path id="Forma 1" d="M46.06 26.01c.55 0 1 .45 1 1a1 1 0 01-2 0c0-.55.45-1 1-1zm-36.03 0c.55 0 1 .45 1 1a1 1 0 01-2 0c0-.55.45-1 1-1zm3 2.98c.55 0 1 .45 1 1s-.45.99-1 .99-1-.44-1-.99.45-1 1-1zm6.01 0c.55 0 1 .45 1 1s-.45.99-1 .99c-.56 0-1-.44-1-.99s.44-1 1-1zm-3.01 2.99c.56 0 1 .44 1 .99s-.44 1-1 1c-.55 0-1-.45-1-1s.45-.99 1-.99zm6.01 0c.55 0 1 .44 1 .99s-.45 1-1 1-1-.45-1-1 .45-.99 1-.99zm3 2.98c.55 0 1 .45 1 1s-.45.99-1 .99-1-.44-1-.99.45-1 1-1zm6.01 0c.55 0 1 .45 1 1s-.45.99-1 .99c-.56 0-1-.44-1-.99s.44-1 1-1zm3-2.98c.55 0 1 .44 1 .99s-.45 1-1 1-1-.45-1-1 .45-.99 1-.99zm-6.01 5.97c.56 0 1 .44 1 .99s-.44.99-1 .99c-.55 0-1-.44-1-.99s.45-.99 1-.99zm9.01-8.96c.55 0 1 .45 1 1s-.45.99-1 .99-1-.44-1-.99.45-1 1-1zm6.01 0c.55 0 1 .45 1 1s-.45.99-1 .99a.997.997 0 01-1.01-.99c0-.55.45-1 1.01-1zm-3.01 2.99c.56 0 1 .44 1 .99s-.44 1-1 1c-.55 0-1-.45-1-1s.45-.99 1-.99zm6.55 1.81l9.4-5.34L46.33 23 56 17.51 28.5 1.99 1 17.51 10.66 23 1 28.45l9.66 5.49L1 39.39 28.5 55 56 39.39l-9.66-5.45.07-.04c.07-.03.12-.07.19-.11zM28.5 4.28l23.45 13.24-7.64 4.34-15.81 8.97L5.04 17.52 28.5 4.28zM12.14 24.45c.16.33.5.57.89.57.27 0 .51-.11.69-.29l2.27 1.29c-.53.02-.96.45-.96.99a1 1 0 002 0c0-.18-.05-.33-.13-.47l10.34 5.87c-.12.16-.2.35-.2.56 0 .55.45 1 1 1 .56 0 1-.45 1-1 0-.05-.02-.09-.02-.14l10.06-5.71c.05.49.46.88.97.88.56 0 1-.45 1-1 0-.32-.16-.59-.4-.77l2.2-1.26c.07.02.13.05.21.05.44 0 .8-.3.93-.7l.32-.18 7.64 4.31-1.98 1.13c-.16-.34-.5-.59-.91-.59-.55 0-1 .45-1 1 0 .21.08.4.2.56l-3.95 2.24-6.39 3.63a.91.91 0 00.13-.46c0-.55-.45-1-1-1s-1 .45-1 1c0 .53.43.96.96.98l-2.27 1.29a.967.967 0 00-.69-.29c-.55 0-1 .45-1 1 0 .08.03.15.04.22l-4.59 2.61-5.52-3.13a.99.99 0 00-.94-.7c-.07 0-.14.03-.21.05l-2.2-1.25c.24-.19.41-.46.41-.78 0-.55-.45-1-1-1-.52 0-.92.39-.98.88L8 30.13c0-.05.03-.09.03-.14 0-.55-.45-1-1-1-.24 0-.45.1-.63.24l-1.36-.77 7.1-4.01zM51.95 39.4L28.5 52.71 5.04 39.4l7.64-4.32 15.82 8.98 15.81-8.98 7.64 4.32z" fill="#ffc000"/></svg>