<svg xmlns="http://www.w3.org/2000/svg" width="63" height="54"><style/><path id="Forma 1" d="M52.98 18.19C52.45 9.19 45.03 2 36.08 2 30.65 2 25.4 4.66 22.14 9.01c-.08-.04-.16-.07-.23-.1-.2-.1-.4-.19-.61-.27-.11-.05-.22-.09-.34-.13-.2-.07-.41-.13-.62-.19L20 8.23c-.23-.05-.46-.09-.69-.13-.1-.01-.2-.03-.3-.04C18.68 8.02 18.34 8 18 8c-4.96 0-9 4.03-9 9 0 .13.01.25.02.38C4.86 19.65 2 24.4 2 29.15 2 36.24 7.76 42 14.84 42H20c.55 0 1-.45 1-1s-.45-1-1-1h-5.16C8.86 40 4 35.13 4 29.15 4 25 6.7 20.69 10.43 18.9l.57-.27V18c0-.12.01-.24.01-.37l.02-.18-.02-.2c0-.08-.01-.17-.01-.25 0-3.86 3.14-7 7-7 .31 0 .61.03.92.07l.23.03c.27.05.53.1.79.18l.1.03c.29.08.57.19.84.32a9.586 9.586 0 01.91.49A7.004 7.004 0 0125 17c0 .55.45 1 1 1s1-.45 1-1c0-2.76-1.25-5.22-3.2-6.87C26.67 6.38 31.39 4 36.08 4c7.75 0 14.18 6.13 14.85 13.89-1.02-.08-2.55-.11-4.08.12-.55.08-.92.59-.84 1.14.08.49.5.85.99.85.05 0 .1 0 .15-.01 2.23-.34 4.55-.02 4.68 0 4.66.88 8.17 5.17 8.17 9.98C60 35.5 55.5 40 49.97 40H46c-.55 0-1 .45-1 1s.45 1 1 1h3.97C56.6 42 62 36.6 62 29.97c0-5.49-3.83-10.41-9.02-11.78zm-12.69 25.1L34 49.58V29c0-.55-.45-1-1-1s-1 .45-1 1v20.58l-6.29-6.29c-.39-.39-1.03-.39-1.42 0-.39.39-.39 1.02 0 1.42l8 7.99c.09.1.2.17.33.22.12.05.25.08.38.08s.26-.03.38-.08.24-.12.33-.22l8-7.99c.39-.4.39-1.03 0-1.42-.39-.39-1.03-.39-1.42 0z" fill="#ffc000"/></svg>