<svg xmlns="http://www.w3.org/2000/svg" width="39" height="63"><style/><path id="Forma 1" d="M6 17c.26 0 .51-.1.71-.29l4-4c.39-.4.39-1.03 0-1.42-.39-.39-1.03-.39-1.42 0l-4 4c-.39.39-.39 1.02 0 1.42.2.19.45.29.71.29zm0 5c.26 0 .51-.1.71-.29l2-2c.39-.4.39-1.03 0-1.42-.39-.39-1.03-.39-1.42 0l-2 2c-.39.39-.39 1.02 0 1.42.2.19.45.29.71.29zm3.29-5.71c-.18.19-.29.44-.29.71 0 .26.11.52.29.71.19.18.45.29.71.29.26 0 .52-.11.71-.29.18-.19.29-.45.29-.71 0-.26-.11-.52-.29-.71-.38-.37-1.05-.37-1.42 0zm2-.58c.2.19.45.29.71.29.26 0 .51-.1.71-.29l3-3c.39-.4.39-1.03 0-1.42-.39-.39-1.03-.39-1.42 0l-3 3c-.39.39-.39 1.02 0 1.42zm3 .58l-9 9c-.39.39-.39 1.02 0 1.42.2.19.45.29.71.29.26 0 .51-.1.71-.29l9-9c.39-.4.39-1.03 0-1.42-.39-.39-1.03-.39-1.42 0zm2-2c-.18.19-.29.44-.29.71 0 .26.11.52.29.71.19.18.45.29.71.29.26 0 .52-.11.71-.29.19-.19.29-.45.29-.71 0-.26-.11-.52-.29-.71-.38-.37-1.05-.37-1.42 0zm-3-9c-.18.19-.29.45-.29.71 0 .26.11.52.29.71.19.18.45.29.71.29.26 0 .52-.11.71-.29.18-.19.29-.45.29-.71 0-.26-.11-.52-.29-.71-.38-.37-1.04-.37-1.42 0zm-8 0C5.11 5.48 5 5.73 5 6c0 .27.11.52.29.71.19.18.44.29.71.29.26 0 .52-.11.71-.29.18-.19.29-.45.29-.71 0-.26-.11-.52-.29-.71-.38-.37-1.05-.37-1.42 0zm28 0c-.18.19-.29.45-.29.71 0 .26.11.52.29.71.19.18.44.29.71.29.27 0 .52-.11.71-.29.18-.19.29-.45.29-.71 0-.26-.11-.52-.29-.71-.37-.37-1.05-.37-1.42 0zm-17 0c-.18.19-.29.45-.29.71 0 .26.11.52.29.71.19.18.45.29.71.29.26 0 .52-.11.71-.29.19-.19.29-.45.29-.71 0-.26-.1-.52-.29-.71-.38-.37-1.05-.37-1.42 0zm3 0c-.18.19-.29.44-.29.71 0 .26.11.52.29.71.19.19.45.29.71.29.26 0 .52-.1.71-.29.18-.19.29-.45.29-.71 0-.26-.11-.52-.29-.71-.37-.37-1.06-.37-1.42 0zm3 0c-.18.19-.29.45-.29.71 0 .26.11.52.29.71.19.18.45.29.71.29.26 0 .52-.11.71-.29.19-.19.29-.45.29-.71 0-.26-.11-.52-.29-.71-.38-.37-1.05-.37-1.42 0zm3 0c-.18.19-.29.44-.29.71 0 .26.11.52.29.71.19.18.45.29.71.29.26 0 .52-.11.71-.29.18-.19.29-.45.29-.71 0-.26-.11-.52-.29-.71-.37-.37-1.04-.37-1.42 0zM14 59c.26 0 .52-.11.71-.29.18-.19.29-.45.29-.71 0-.27-.11-.52-.29-.71-.37-.37-1.05-.37-1.42 0-.18.19-.29.45-.29.71 0 .26.11.52.29.71.19.18.45.29.71.29zm3 0c.26 0 .52-.11.71-.29.18-.19.29-.45.29-.71 0-.26-.1-.52-.29-.71-.38-.37-1.05-.37-1.42 0-.18.19-.29.45-.29.71 0 .27.11.52.29.71.19.18.44.29.71.29zm3 0c.26 0 .52-.11.71-.29.18-.19.29-.45.29-.71 0-.26-.11-.52-.29-.71-.37-.37-1.05-.37-1.42 0-.18.19-.29.45-.29.71 0 .26.11.52.29.71.19.18.44.29.71.29zm3 0c.26 0 .52-.11.71-.29.18-.19.29-.45.29-.71 0-.26-.1-.52-.29-.71-.38-.37-1.04-.37-1.42 0-.18.19-.29.45-.29.71 0 .26.11.52.29.71.19.18.45.29.71.29zm3 0c.26 0 .52-.11.71-.29.18-.19.29-.45.29-.71 0-.26-.11-.52-.29-.7-.37-.38-1.05-.38-1.42-.01-.18.19-.29.45-.29.71 0 .27.11.52.29.71.19.18.45.29.71.29zm-6.71-47.71l-1 1c-.39.39-.39 1.02 0 1.42.2.19.45.29.71.29.26 0 .51-.1.71-.29l1-1c.39-.4.39-1.03 0-1.42-.39-.39-1.03-.39-1.42 0zM33.32 2H6.68C4.1 2 2 4.1 2 6.68v50.64C2 59.9 4.1 62 6.68 62h26.64C35.9 62 38 59.9 38 57.32V6.68C38 4.1 35.9 2 33.32 2zM4 10h32v44H4V10zm32 47.32C36 58.8 34.8 60 33.32 60H6.68A2.68 2.68 0 014 57.32V56h32v1.32zM4 8V6.68C4 5.2 5.2 4 6.68 4h26.64C34.8 4 36 5.2 36 6.68V8H4z" fill="#ffc000"/></svg>