<svg xmlns="http://www.w3.org/2000/svg" width="59" height="59"><style/><path id="Forma 1" d="M49.53 2H10.47C5.8 2 2 5.8 2 10.46v39.07C2 54.2 5.8 58 10.47 58h39.06C54.2 58 58 54.2 58 49.53V10.46C58 5.8 54.2 2 49.53 2zM56 49.53C56 53.1 53.1 56 49.53 56H10.47C6.9 56 4 53.1 4 49.53V32.41l6.25-6.24c.79.52 1.73.83 2.75.83s1.96-.31 2.75-.83l10.08 10.07c-.52.8-.83 1.74-.83 2.76 0 2.75 2.24 5 5 5s5-2.25 5-5c0-1.02-.31-1.96-.83-2.76L48 22.41V29c0 .55.45 1 1 1s1-.45 1-1V19H40c-.55 0-1 .45-1 1s.45 1 1 1h6.59L32.75 34.83c-.79-.52-1.73-.83-2.75-.83s-1.96.31-2.75.83L17.17 24.75c.52-.79.83-1.73.83-2.75 0-2.76-2.24-5-5-5s-5 2.24-5 5c0 1.02.31 1.96.83 2.75L4 29.58V10.46C4 6.9 6.9 4 10.47 4h39.06C53.1 4 56 6.9 56 10.46v39.07zM13 25c-1.65 0-3-1.35-3-3 0-1.66 1.35-3 3-3s3 1.34 3 3c0 1.65-1.35 3-3 3zm20 14c0 1.65-1.35 3-3 3s-3-1.35-3-3c0-1.66 1.35-3 3-3s3 1.34 3 3z" fill="#ffc000"/></svg>