<svg xmlns="http://www.w3.org/2000/svg" width="60" height="61"><style/><path id="Forma 1" d="M33.5 2c-1.02 0-2.03.07-3.02.21C29.45 2.07 28.47 2 27.5 2c-4.88 0-9.45 1.57-13.33 4.29a26.929 26.929 0 00-5.33 4.97c-.05.04-.08.09-.12.15a29.227 29.227 0 00-3.79 6.12c-.03.05-.05.1-.07.15-.71 1.56-1.3 3.19-1.76 4.9a.79.79 0 00-.08.31C2.36 25.46 2 28.18 2 31c0 4.4.87 8.58 2.42 12.32.02.04.03.08.05.12.93 2.21 2.1 4.27 3.47 6.13.03.05.06.11.11.15 1.39 1.87 2.98 3.53 4.74 4.94.05.06.11.1.17.14C17.09 58.07 22.1 60 27.5 60c.97 0 1.95-.07 2.98-.21.99.13 2 .21 3.02.21C47.56 60 59 46.99 59 31S47.56 2 33.5 2zM22.92 4.62c-.32.17-.63.34-.94.52l-.57.33c-.27.17-.54.35-.81.53h-1.93c1.47-.69 2.99-1.23 4.58-1.56l-.33.18zM12.86 48H9.27c-.88-1.25-1.66-2.59-2.34-4h3.79c.15.35.31.7.48 1.05.08.15.15.29.23.44.2.4.42.8.64 1.19.08.15.16.29.24.43.18.3.36.6.55.89zM6.47 19h3.82c-.17.44-.34.88-.49 1.33-.05.12-.09.24-.13.37-.15.43-.28.86-.41 1.3h-3.9c.31-1.03.69-2.03 1.11-3zM4 31c0-.68.04-1.34.08-2h3.98v.05C8.03 29.69 8 30.34 8 31c0 .33.01.67.02 1H4.04c-.01-.34-.04-.66-.04-1zm4.14 3c.03.42.08.84.14 1.25 0 .03 0 .06.01.1.07.55.16 1.1.26 1.65H4.61c-.2-.98-.35-1.98-.45-3h3.98zm.62-10c-.03.12-.05.24-.08.36-.02.13-.05.26-.08.39-.12.63-.23 1.26-.31 1.9-.01.03-.01.06-.01.09l-.03.26H4.28c.13-1.02.3-2.02.53-3h3.95zm.23 15c.04.12.06.25.1.37l.03.13c.17.61.35 1.21.55 1.8.04.12.08.25.13.37.04.11.07.22.11.33H6.06c-.38-.97-.71-1.98-.99-3h3.92zm3.32-24.12c-.08.15-.16.29-.24.43-.22.4-.44.79-.64 1.2-.08.14-.15.29-.23.44-.01.01-.01.03-.02.05H7.43c.76-1.43 1.63-2.76 2.59-4h3.51l-.37.52c-.29.45-.58.9-.85 1.36zM15.23 8h2.76c-.24.22-.49.43-.73.66-.2.19-.4.39-.6.59-.2.19-.39.39-.58.6-.19.2-.37.39-.55.6-.16.18-.31.36-.47.55h-3.3a23.41 23.41 0 013.47-3zm-4.41 42h3.44c.11.15.22.3.34.44a24.815 24.815 0 001.48 1.71c.19.2.39.4.58.6.08.08.16.17.24.25h-3.01c-1.09-.9-2.12-1.9-3.07-3zm12.43 7.56c-2.29-.49-4.46-1.37-6.47-2.56h2.42c.13.09.25.19.38.28.21.16.42.32.64.47.39.27.79.53 1.19.78.19.11.38.22.56.33.32.18.63.35.95.51.11.06.22.13.33.19zM33.5 58c-.79 0-1.58-.05-2.35-.14l-.4-.05a.772.772 0 00-.15-.02c-.35-.05-.69-.11-1.03-.18-.03 0-.05-.01-.08-.01-.33-.07-.67-.14-.99-.22a.495.495 0 01-.13-.04c-.31-.08-.62-.16-.92-.25-.09-.03-.17-.06-.25-.08-.26-.09-.53-.17-.79-.27-.18-.06-.36-.14-.55-.21-.15-.06-.31-.12-.46-.19-5.38-2.27-9.84-6.74-12.55-12.46-.02-.05-.05-.11-.07-.16-.15-.31-.29-.62-.42-.94-.06-.13-.1-.26-.16-.38-.1-.25-.2-.5-.29-.76l-.18-.48c-.08-.23-.16-.45-.23-.68-.06-.18-.12-.37-.17-.55-.07-.21-.13-.43-.19-.64-.06-.2-.11-.39-.16-.59-.06-.21-.11-.42-.16-.63-.05-.2-.09-.41-.13-.61-.05-.21-.09-.43-.13-.64l-.12-.62c-.03-.22-.07-.44-.1-.67l-.09-.6c-.03-.24-.05-.48-.08-.73-.02-.19-.04-.37-.05-.56-.03-.28-.04-.56-.06-.84l-.03-.47a29.508 29.508 0 010-2.66l.03-.47c.01-.28.03-.56.05-.84l.06-.57c.03-.24.05-.48.08-.72l.09-.61c.03-.22.06-.45.1-.67.04-.21.08-.41.11-.61.05-.22.09-.43.13-.65.05-.2.09-.4.14-.6.05-.22.1-.43.16-.64.05-.2.1-.39.16-.59.06-.21.12-.42.18-.64l.18-.54c.07-.23.15-.45.23-.68.06-.16.12-.32.18-.49.09-.25.19-.5.29-.75.06-.13.1-.25.16-.38.13-.32.27-.63.42-.95.02-.05.05-.1.07-.15C15.56 12.4 20.02 7.93 25.4 5.65c.15-.06.31-.12.46-.18.19-.07.37-.15.55-.21.26-.1.53-.19.79-.27.08-.03.16-.05.25-.08.3-.09.61-.18.92-.25.04-.02.08-.03.13-.04.32-.08.66-.16.99-.22.03-.01.05-.01.08-.02.34-.06.68-.12 1.03-.17.05-.01.1-.01.15-.02l.4-.06c.77-.08 1.56-.13 2.35-.13C46.46 4 57 16.11 57 31S46.46 58 33.5 58zm0-47.53c.61 0 1.22.04 1.82.11.04.01.08.01.11.01.51 0 .94-.38 1-.89.06-.55-.33-1.04-.88-1.11-.67-.08-1.36-.12-2.07-.12h-.01l-.01 1v-1c-.56 0-.98.45-.98 1 0 .56.47 1 1.02 1zm-7.67 1.87c.15 0 .31-.04.45-.11.56-.29 1.13-.54 1.71-.76.52-.19.78-.77.59-1.28-.2-.52-.77-.78-1.29-.59-.65.24-1.29.53-1.92.85-.49.25-.68.85-.43 1.34.17.35.52.55.89.55zm24.8 12.95a1.01 1.01 0 001.22.73c.53-.14.86-.68.72-1.22-.16-.66-.36-1.33-.58-1.98-.18-.52-.75-.8-1.27-.62-.53.18-.8.75-.63 1.27.21.6.39 1.21.54 1.82zm-1.4-8.01c-.39-.58-.8-1.13-1.24-1.67-.35-.42-.98-.48-1.41-.13a.99.99 0 00-.14 1.4c.4.49.78 1 1.13 1.52.2.28.51.44.83.44a1.002 1.002 0 00.83-1.56zM33.5 51.52c-.62 0-1.25-.03-1.86-.11-.56-.05-1.04.33-1.11.88-.06.55.33 1.04.87 1.11.69.08 1.4.12 2.1.12h.08c.56 0 .96-.44.96-1 0-.55-.49-1-1.04-1zm13.02-6.5c-.4.49-.82.96-1.26 1.4-.39.4-.38 1.03.01 1.42.2.19.45.29.7.29.26 0 .52-.1.72-.3.48-.49.94-1.01 1.38-1.55a.988.988 0 00-.14-1.4 1 1 0 00-1.41.14zm-5.77 4.73c-.55.29-1.13.54-1.7.76a1.002 1.002 0 00.35 1.94c.12 0 .23-.03.35-.07.65-.24 1.29-.53 1.92-.85.49-.25.68-.85.43-1.34-.25-.5-.86-.69-1.35-.44zm2.61-38.3c-.59-.38-1.2-.73-1.82-1.05a1.002 1.002 0 00-.9 1.79c.56.28 1.1.59 1.62.93.17.11.36.17.55.17.32 0 .64-.16.84-.46a1 1 0 00-.29-1.38zm8.97 18.52c-.55 0-1 .48-1 1.03 0 .62-.02 1.23-.07 1.84-.04.55.37 1.03.92 1.07h.08c.52 0 .96-.39 1-.92.05-.65.07-1.32.07-1.99v-.07c0-.55-.44-.96-1-.96zM15.67 31c0-.62.02-1.26.07-1.88.04-.55-.37-1.03-.92-1.08-.54-.03-1.03.37-1.07.92-.06.68-.08 1.36-.08 2.04v.02c0 .55.44.99 1 .99.55 0 1-.46 1-1.01zm35.73 6.78c-.52-.17-1.09.11-1.27.63-.2.6-.43 1.19-.68 1.77-.22.51.01 1.1.52 1.32a1.001 1.001 0 001.31-.52c.28-.63.53-1.28.75-1.93.18-.52-.11-1.09-.63-1.27zM17.05 20.46c-.51-.22-1.1.01-1.32.52-.27.62-.52 1.27-.75 1.93-.17.52.11 1.09.63 1.27.11.03.22.05.32.05.42 0 .81-.26.95-.68.2-.6.43-1.19.68-1.77.23-.5 0-1.09-.51-1.32zm2.35 23.11a.999.999 0 00-1.39-.27c-.45.31-.57.93-.27 1.39.4.57.81 1.13 1.24 1.66.2.24.49.37.78.37.22 0 .44-.08.63-.23a1 1 0 00.14-1.41c-.39-.48-.77-.99-1.13-1.51zm-3.05-6.9a.987.987 0 00-1.21-.73c-.53.13-.86.67-.73 1.21.17.67.37 1.33.59 1.98.14.42.53.68.94.68.11 0 .22-.02.33-.05.52-.18.8-.75.62-1.27-.2-.6-.38-1.21-.54-1.82zm4-22.53c-.49.48-.95 1.01-1.39 1.54a1 1 0 00.14 1.41.986.986 0 001.4-.14c.4-.49.83-.96 1.27-1.4.38-.39.38-1.03-.01-1.42a.996.996 0 00-1.41.01zm5.97 35.65c-.55-.28-1.1-.6-1.62-.94-.46-.3-1.08-.17-1.39.29a1 1 0 00.29 1.38c.59.39 1.19.74 1.81 1.05a1.007 1.007 0 001.35-.44.998.998 0 00-.44-1.34zM39.4 30.8c-1.01-.5-2.15-.91-3.38-1.23-.71-.19-1.22-.32-1.53-.4v-8.94c.46.09.89.22 1.3.4 1.65.67 2.62 1.64 3.73 2.87v2.08c0 .61.39.99.99.99s.99-.38.99-.99v-6.16c0-.6-.39-.99-.99-.99s-.98.39-.98.99v1.31c-.23-.18-.08-.38-.41-.62-1.26-.9-2.81-1.53-4.63-1.86v-1.43c0-.6-.38-.99-.98-.99s-.99.39-.99.99v1.29c-2.56.04-4.48.63-5.71 1.75-1.3 1.17-1.95 2.76-1.95 4.72 0 1.04.3 1.97.89 2.77.58.77 1.4 1.43 2.46 1.95.95.47 2.4.97 4.31 1.51v9.56c-.52-.09-1-.22-1.43-.38-1.77-.68-2.56-1.1-3.62-2.24v-2.24c0-.6-.38-.99-.98-.99s-.99.39-.99.99v6.16c0 .6.39.99.99.99s.98-.39.98-.99v-1.31c1.73 1.38 3 1.72 5.05 2v1.41c0 .6.39.99.99.99s.98-.39.98-.99v-1.29c2.59-.03 4.62-.65 6.03-1.84 1.47-1.23 2.22-2.93 2.22-5.02 0-1.1-.3-2.06-.89-2.86-.58-.78-1.4-1.44-2.45-1.96zm-6.88-2.18c-.34-.11-.72-.22-1.13-.33-.66-.19-1.37-.46-2.11-.79-.69-.31-1.29-.76-1.77-1.33-.46-.54-.68-1.15-.68-1.88 0-1.18.47-2.15 1.42-2.97.92-.78 2.35-1.2 4.27-1.24v8.54zm7.35 11.26c-.01.01-.03.02-.05.04a7.201 7.201 0 00.05-.04zm-.72-.71c-1.06.86-2.63 1.31-4.65 1.34v-9.17l1.57.44c.75.21 1.51.49 2.25.82.7.31 1.29.76 1.77 1.33.46.54.68 1.15.68 1.88 0 1.39-.53 2.49-1.62 3.36z" fill="#ffc000"/></svg>