<svg xmlns="http://www.w3.org/2000/svg" width="49" height="63"><style/><path id="Forma 1" d="M47 10.08c-14.6 0-21.14-7.52-21.23-7.63-.38-.45-1.16-.45-1.54 0-.06.08-6.54 7.63-21.23 7.63-.55 0-1 .45-1 1v19.05c0 10.42 4.69 20.32 12.55 26.48 3.16 2.49 6.58 4.29 10.16 5.35.1.03.19.04.29.04.1 0 .19-.01.28-.04 3.59-1.06 7.01-2.86 10.17-5.35C43.31 50.45 48 40.55 48 30.13V11.08c0-.55-.45-1-1-1zm-1 20.05c0 9.81-4.4 19.13-11.78 24.92-2.89 2.26-5.99 3.91-9.22 4.91-3.24-1-6.34-2.65-9.22-4.91C8.4 49.26 4 39.94 4 30.13V12.07c12.24-.27 18.86-5.49 21-7.54 2.13 2.05 8.76 7.27 21 7.54v18.06zM24.44 10.08c-3.02 2.05-8.17 4.69-15.57 5.63-.5.06-.87.49-.87.99v13.44c0 8.59 3.83 16.73 10.25 21.77 2.03 1.58 4.17 2.83 6.38 3.69.12.05.25.07.37.07s.25-.02.36-.07c2.21-.86 4.36-2.11 6.39-3.69C38.17 46.87 42 38.73 42 30.14V16.7c0-.5-.37-.93-.87-.99-7.41-.94-12.55-3.58-15.57-5.63a.995.995 0 00-1.12 0zM40 17.57v12.56c0 7.99-3.55 15.54-9.49 20.21-1.76 1.37-3.61 2.47-5.51 3.26-1.9-.79-3.75-1.89-5.51-3.26C13.55 45.67 10 38.12 10 30.13V17.57c6.9-1.02 11.87-3.44 15-5.46 3.12 2.02 8.1 4.44 15 5.46zM15.71 31.34c-.39-.39-1.03-.39-1.42 0a.996.996 0 000 1.41l8 7.99c.19.19.44.29.71.29h.03c.28-.01.54-.13.72-.34l14-15.97a.997.997 0 00-.09-1.41.997.997 0 00-1.41.09l-13.3 15.17-7.24-7.23z" fill="#ffc000"/></svg>