<svg xmlns="http://www.w3.org/2000/svg" width="63" height="63"><style/><path id="Forma 1" d="M61 58H6V3c0-.55-.45-1-1-1s-1 .45-1 1v55H3c-.55 0-1 .45-1 1s.45 1 1 1h1v1c0 .55.45 1 1 1s1-.45 1-1v-1h55c.55 0 1-.45 1-1s-.45-1-1-1zM9 31h2c.55 0 1-.45 1-1s-.45-1-1-1H9c-.55 0-1 .45-1 1s.45 1 1 1zm0-4h2c.55 0 1-.45 1-1s-.45-1-1-1H9c-.55 0-1 .45-1 1s.45 1 1 1zm0-4h2c.55 0 1-.45 1-1s-.45-1-1-1H9c-.55 0-1 .45-1 1s.45 1 1 1zm0-4h2c.55 0 1-.45 1-1s-.45-1-1-1H9c-.55 0-1 .45-1 1s.45 1 1 1zm0-4h2c.55 0 1-.45 1-1s-.45-1-1-1H9c-.55 0-1 .45-1 1s.45 1 1 1zm0-4h2c.55 0 1-.45 1-1s-.45-1-1-1H9c-.55 0-1 .45-1 1s.45 1 1 1zm0-4h2c.55 0 1-.45 1-1s-.45-1-1-1H9c-.55 0-1 .45-1 1s.45 1 1 1zm4.01 43.99c3.31 0 6-2.7 6-6 0-1.55-.59-2.96-1.56-4.03l3.53-3.52A5.98 5.98 0 0025 39c1.55 0 2.96-.6 4.02-1.56l4.54 4.53A5.976 5.976 0 0032 46c0 3.31 2.69 6 6 6s6-2.69 6-6c0-1.04-.26-2.01-.73-2.86l8.71-8.7A5.98 5.98 0 0056 36c3.31 0 6-2.69 6-6s-2.69-6-6-6-6 2.69-6 6c0 1.03.26 2.01.73 2.86l-8.71 8.7A5.932 5.932 0 0038 40c-1.04 0-2.01.26-2.86.73l-4.87-4.87c.47-.85.73-1.83.73-2.86 0-3.31-2.69-6-6-6s-6 2.69-6 6c0 1.03.26 2.01.73 2.86l-3.86 3.85a6.005 6.005 0 00-8.86 5.28c0 3.31 2.69 6 6 6zM56 26a3.999 3.999 0 110 8 3.999 3.999 0 110-8zM42 46c0 2.2-1.79 4-4 4s-4-1.8-4-4c0-2.21 1.79-4 4-4s4 1.79 4 4zM25 29a3.999 3.999 0 110 8 3.999 3.999 0 110-8zM13.01 40.99a3.999 3.999 0 11.002 7.998 3.999 3.999 0 01-.002-7.998z" fill="#ffc000"/></svg>