<svg xmlns="http://www.w3.org/2000/svg" width="63" height="63"><style/><path id="Forma 1" d="M32 54.01c12.13 0 22-9.87 22-22.01 0-12.13-9.87-22-22-22s-22 9.87-22 22c0 12.14 9.87 22.01 22 22.01zM32 12c11.03 0 20 8.97 20 20s-8.97 20.01-20 20.01S12 43.03 12 32c0-11.03 8.97-20 20-20zm0 5c.55 0 1-.45 1-1v-2c0-.55-.45-1-1-1s-1 .45-1 1v2c0 .55.45 1 1 1zm0 30.01c-.55 0-1 .44-1 1v2c0 .55.45 1 1 1s1-.45 1-1v-2c0-.56-.45-1-1-1zM48 33h2c.55 0 1-.44 1-1 0-.55-.45-1-1-1h-2c-.55 0-1 .45-1 1 0 .56.45 1 1 1zm-32-2h-2c-.55 0-1 .45-1 1 0 .56.45 1 1 1h2c.55 0 1-.44 1-1 0-.55-.45-1-1-1zm5 12.01c.26 0 .51-.1.71-.3l8.27-8.27c.6.35 1.28.56 2.02.56 2.21 0 4-1.79 4-4a3.98 3.98 0 00-3-3.85V22c0-.55-.45-1-1-1s-1 .45-1 1v5.15c-1.72.44-3 1.99-3 3.85 0 .74.21 1.43.57 2.02l-8.28 8.28a.996.996 0 000 1.41c.2.2.45.3.71.3zM32 29a2 2 0 11.001 4.001A2 2 0 0132 29zM12.08 12H20c.55 0 1-.45 1-1s-.45-1-1-1h-5.3C19.62 6.11 25.67 4 32 4c15.44 0 28 12.56 28 28 0 .56.45 1 1 1s1-.44 1-1C62 15.46 48.54 2 32 2c-6.98 0-13.64 2.41-19 6.81V3c0-.55-.45-1-1-1s-1 .45-1 1v9h.89c.07.01.13.01.19 0zM6.82 44.23c-.25-.5-.84-.7-1.34-.46-.5.25-.7.85-.46 1.34.17.36.53.57.9.57.14 0 .29-.03.43-.11.5-.23.71-.84.47-1.34zm3.05 4.92a.992.992 0 00-1.4-.18c-.44.34-.52.97-.18 1.4.2.26.5.39.79.39.22 0 .43-.07.62-.21a1 1 0 00.17-1.4zm-1.65-2.38c-.29-.47-.91-.61-1.38-.32-.47.3-.61.91-.32 1.38.19.3.52.47.85.47.18 0 .36-.05.53-.15.47-.29.61-.92.32-1.38zm2.13 4.54a.996.996 0 00-.03 1.41c.19.21.46.31.72.31.25 0 .5-.09.69-.28.4-.38.42-1.01.03-1.41a.996.996 0 00-1.41-.03zm2.11 2.13a.999.999 0 101.52 1.3.999.999 0 10-1.52-1.3zM4.11 40.02c.53-.14.86-.68.73-1.22-.14-.53-.68-.86-1.22-.72-.53.14-.86.67-.72 1.22.11.44.52.76.97.76.08 0 .16-.02.24-.04zm-.68-2.92c.55-.09.93-.59.85-1.14a1 1 0 10-.99 1.14h.14zm2.25 4.47a.994.994 0 10-1.87.68c.14.41.53.66.93.66.12 0 .23-.02.35-.06.52-.18.78-.75.59-1.28zm-2.66-7.45h.04c.55-.02.98-.49.96-1.04-.02-.55-.49-.98-1.04-.96-.55.02-.98.48-.96 1.04.02.53.47.96 1 .96zm11.76 21.23c-.32.45-.2 1.07.25 1.39a1 1 0 00.57.17c.32 0 .63-.15.82-.43a.996.996 0 10-1.64-1.13zm36.16-2.73v-.01a1 1 0 00.68 1.74.997.997 0 00.73-1.67.988.988 0 00-1.41-.06zm2.03-2.07a.998.998 0 00.08 1.41c.19.17.43.25.66.25.28 0 .55-.11.75-.34a.998.998 0 00-.08-1.41c-.42-.36-1.05-.33-1.41.09zm1.8-2.27c-.32.45-.22 1.08.23 1.4.18.13.38.18.58.18.32 0 .62-.14.82-.41.32-.45.22-1.07-.23-1.4-.45-.32-1.08-.21-1.4.23zm-6.06 6.18c-.44.33-.53.96-.2 1.4.19.27.49.4.8.4a.996.996 0 00.8-1.59.996.996 0 00-1.4-.21zm-2.41 1.61c-.47.29-.63.9-.34 1.37.18.32.52.49.86.49a.995.995 0 00.85-1.51c-.28-.47-.89-.63-1.37-.35zm11.4-10.6c-.48-.28-1.09-.1-1.37.38h.01a.99.99 0 00.37 1.36c.15.09.32.13.49.13.35 0 .69-.19.87-.5.28-.48.11-1.09-.37-1.37zM60.95 34a1 1 0 00-1.1.89c-.06.55.34 1.04.89 1.11h.11c.5 0 .94-.39.99-.9a.994.994 0 00-.89-1.1zm-.36 2.98a.988.988 0 00-1.18.77c-.12.54.23 1.07.77 1.18.07.03.14.03.21.03.46 0 .88-.32.97-.79a.998.998 0 00-.77-1.19zm-.67 2.92a.988.988 0 00-1.25.65c-.17.52.12 1.09.64 1.26.1.03.21.04.31.04.42 0 .81-.27.95-.68.17-.53-.12-1.1-.65-1.27zm-.96 2.85a.997.997 0 00-1.32.51c-.23.51 0 1.09.51 1.32.13.06.27.09.4.09.39 0 .75-.23.92-.61a.998.998 0 00-.51-1.31zM43.75 57.43c-.51.23-.72.82-.49 1.32.17.37.53.58.91.58a.994.994 0 00.9-1.42.983.983 0 00-1.32-.48zm-16.97 2.09a1 1 0 00-1.17.8c-.1.54.25 1.06.8 1.17.06.01.12.01.18.01.47 0 .89-.33.99-.81.1-.54-.26-1.07-.8-1.17zm2.87.39a.992.992 0 00-1.08.91c-.05.56.36 1.04.91 1.09v-.01c.03.01.06.01.08.01a1.002 1.002 0 00.09-2zm-5.68-1.07c-.53-.16-1.09.14-1.25.66-.15.53.14 1.09.67 1.25a1.005 1.005 0 001.25-.67.988.988 0 00-.67-1.24zm-2.73-.98a.993.993 0 00-1.3.54c-.22.51.02 1.09.53 1.31.13.05.26.07.39.07.39 0 .76-.23.92-.61.21-.51-.03-1.1-.54-1.31zm14.19 1.94a.998.998 0 00.12 1.99c.04 0 .08 0 .12-.01v.01c.55-.07.94-.57.87-1.12a.987.987 0 00-1.11-.87zm5.63-1.29a.997.997 0 00.32 1.94c.11 0 .22-.02.33-.05.52-.18.8-.75.62-1.27a.993.993 0 00-1.27-.62zm-2.78.79c-.54.12-.88.66-.75 1.2.1.46.52.77.97.77.08 0 .15 0 .23-.02.53-.12.87-.66.75-1.2-.13-.54-.66-.87-1.2-.75zm-5.74.7c-.55.01-.99.47-.98 1.02.01.55.46.98 1 .98h.02c.55-.01.99-.46.98-1.02-.01-.55-.47-.99-1.02-.98zm-13.91-3.39a.996.996 0 10-.95 1.75c.15.09.31.13.47.13.36 0 .7-.19.88-.53a.984.984 0 00-.4-1.35z" fill="#ffc000"/></svg>