<svg xmlns="http://www.w3.org/2000/svg" viewBox="0 0 63 63" width="63" height="63">
	<style>
		tspan { white-space:pre }
		.shp0 { fill: #ffc000 } 
	</style>
	<path id="Forma 1" class="shp0" d="M61 58L6 58L6 3C6 2.45 5.55 2 5 2C4.45 2 4 2.45 4 3L4 58L3 58C2.45 58 2 58.45 2 59C2 59.55 2.45 60 3 60L4 60L4 61C4 61.55 4.45 62 5 62C5.55 62 6 61.55 6 61L6 60L61 60C61.55 60 62 59.55 62 59C62 58.45 61.55 58 61 58ZM9 31L11 31C11.55 31 12 30.55 12 30C12 29.45 11.55 29 11 29L9 29C8.45 29 8 29.45 8 30C8 30.55 8.45 31 9 31ZM9 27L11 27C11.55 27 12 26.55 12 26C12 25.45 11.55 25 11 25L9 25C8.45 25 8 25.45 8 26C8 26.55 8.45 27 9 27ZM9 23L11 23C11.55 23 12 22.55 12 22C12 21.45 11.55 21 11 21L9 21C8.45 21 8 21.45 8 22C8 22.55 8.45 23 9 23ZM9 19L11 19C11.55 19 12 18.55 12 18C12 17.45 11.55 17 11 17L9 17C8.45 17 8 17.45 8 18C8 18.55 8.45 19 9 19ZM9 15L11 15C11.55 15 12 14.55 12 14C12 13.45 11.55 13 11 13L9 13C8.45 13 8 13.45 8 14C8 14.55 8.45 15 9 15ZM9 11L11 11C11.55 11 12 10.55 12 10C12 9.45 11.55 9 11 9L9 9C8.45 9 8 9.45 8 10C8 10.55 8.45 11 9 11ZM9 7L11 7C11.55 7 12 6.55 12 6C12 5.45 11.55 5 11 5L9 5C8.45 5 8 5.45 8 6C8 6.55 8.45 7 9 7ZM13.01 50.99C16.32 50.99 19.01 48.29 19.01 44.99C19.01 43.44 18.42 42.03 17.45 40.96L20.98 37.44C22.04 38.4 23.45 39 25 39C26.55 39 27.96 38.4 29.02 37.44L33.56 41.97C32.59 43.04 32 44.45 32 46C32 49.31 34.69 52 38 52C41.31 52 44 49.31 44 46C44 44.96 43.74 43.99 43.27 43.14L51.98 34.44C53.04 35.4 54.45 36 56 36C59.31 36 62 33.31 62 30C62 26.69 59.31 24 56 24C52.69 24 50 26.69 50 30C50 31.03 50.26 32.01 50.73 32.86L42.02 41.56C40.96 40.59 39.55 40 38 40C36.96 40 35.99 40.26 35.14 40.73L30.27 35.86C30.74 35.01 31 34.03 31 33C31 29.69 28.31 27 25 27C21.69 27 19 29.69 19 33C19 34.03 19.26 35.01 19.73 35.86L15.87 39.71C15.02 39.25 14.05 38.99 13.01 38.99C9.7 38.99 7.01 41.68 7.01 44.99C7.01 48.3 9.7 50.99 13.01 50.99ZM56 26C58.21 26 60 27.79 60 30C60 32.2 58.21 34 56 34C53.79 34 52 32.2 52 30C52 27.79 53.79 26 56 26ZM42 46C42 48.2 40.21 50 38 50C35.79 50 34 48.2 34 46C34 43.79 35.79 42 38 42C40.21 42 42 43.79 42 46ZM25 29C27.21 29 29 30.79 29 33C29 35.2 27.21 37 25 37C22.79 37 21 35.2 21 33C21 30.79 22.79 29 25 29ZM13.01 40.99C15.22 40.99 17.01 42.78 17.01 44.99C17.01 47.19 15.22 48.99 13.01 48.99C10.81 48.99 9.01 47.19 9.01 44.99C9.01 42.78 10.81 40.99 13.01 40.99Z" />
</svg>