<svg xmlns="http://www.w3.org/2000/svg" viewBox="0 0 39 63" width="39" height="63">
	<style>
		tspan { white-space:pre }
		.shp0 { fill: #ffc000 } 
	</style>
	<path id="Forma 1" class="shp0" d="M6 17C6.26 17 6.51 16.9 6.71 16.71L10.71 12.71C11.1 12.31 11.1 11.68 10.71 11.29C10.32 10.9 9.68 10.9 9.29 11.29L5.29 15.29C4.9 15.68 4.9 16.31 5.29 16.71C5.49 16.9 5.74 17 6 17ZM6 22C6.26 22 6.51 21.9 6.71 21.71L8.71 19.71C9.1 19.31 9.1 18.68 8.71 18.29C8.32 17.9 7.68 17.9 7.29 18.29L5.29 20.29C4.9 20.68 4.9 21.31 5.29 21.71C5.49 21.9 5.74 22 6 22ZM9.29 16.29C9.11 16.48 9 16.73 9 17C9 17.26 9.11 17.52 9.29 17.71C9.48 17.89 9.74 18 10 18C10.26 18 10.52 17.89 10.71 17.71C10.89 17.52 11 17.26 11 17C11 16.74 10.89 16.48 10.71 16.29C10.33 15.92 9.66 15.92 9.29 16.29ZM11.29 15.71C11.49 15.9 11.74 16 12 16C12.26 16 12.51 15.9 12.71 15.71L15.71 12.71C16.1 12.31 16.1 11.68 15.71 11.29C15.32 10.9 14.68 10.9 14.29 11.29L11.29 14.29C10.9 14.68 10.9 15.31 11.29 15.71ZM14.29 16.29L5.29 25.29C4.9 25.68 4.9 26.31 5.29 26.71C5.49 26.9 5.74 27 6 27C6.26 27 6.51 26.9 6.71 26.71L15.71 17.71C16.1 17.31 16.1 16.68 15.71 16.29C15.32 15.9 14.68 15.9 14.29 16.29ZM16.29 14.29C16.11 14.48 16 14.73 16 15C16 15.26 16.11 15.52 16.29 15.71C16.48 15.89 16.74 16 17 16C17.26 16 17.52 15.89 17.71 15.71C17.9 15.52 18 15.26 18 15C18 14.74 17.89 14.48 17.71 14.29C17.33 13.92 16.66 13.92 16.29 14.29ZM13.29 5.29C13.11 5.48 13 5.74 13 6C13 6.26 13.11 6.52 13.29 6.71C13.48 6.89 13.74 7 14 7C14.26 7 14.52 6.89 14.71 6.71C14.89 6.52 15 6.26 15 6C15 5.74 14.89 5.48 14.71 5.29C14.33 4.92 13.67 4.92 13.29 5.29ZM5.29 5.29C5.11 5.48 5 5.73 5 6C5 6.27 5.11 6.52 5.29 6.71C5.48 6.89 5.73 7 6 7C6.26 7 6.52 6.89 6.71 6.71C6.89 6.52 7 6.26 7 6C7 5.74 6.89 5.48 6.71 5.29C6.33 4.92 5.66 4.92 5.29 5.29ZM33.29 5.29C33.11 5.48 33 5.74 33 6C33 6.26 33.11 6.52 33.29 6.71C33.48 6.89 33.73 7 34 7C34.27 7 34.52 6.89 34.71 6.71C34.89 6.52 35 6.26 35 6C35 5.74 34.89 5.48 34.71 5.29C34.34 4.92 33.66 4.92 33.29 5.29ZM16.29 5.29C16.11 5.48 16 5.74 16 6C16 6.26 16.11 6.52 16.29 6.71C16.48 6.89 16.74 7 17 7C17.26 7 17.52 6.89 17.71 6.71C17.9 6.52 18 6.26 18 6C18 5.74 17.9 5.48 17.71 5.29C17.33 4.92 16.66 4.92 16.29 5.29ZM19.29 5.29C19.11 5.48 19 5.73 19 6C19 6.26 19.11 6.52 19.29 6.71C19.48 6.9 19.74 7 20 7C20.26 7 20.52 6.9 20.71 6.71C20.89 6.52 21 6.26 21 6C21 5.74 20.89 5.48 20.71 5.29C20.34 4.92 19.65 4.92 19.29 5.29ZM22.29 5.29C22.11 5.48 22 5.74 22 6C22 6.26 22.11 6.52 22.29 6.71C22.48 6.89 22.74 7 23 7C23.26 7 23.52 6.89 23.71 6.71C23.9 6.52 24 6.26 24 6C24 5.74 23.89 5.48 23.71 5.29C23.33 4.92 22.66 4.92 22.29 5.29ZM25.29 5.29C25.11 5.48 25 5.73 25 6C25 6.26 25.11 6.52 25.29 6.71C25.48 6.89 25.74 7 26 7C26.26 7 26.52 6.89 26.71 6.71C26.89 6.52 27 6.26 27 6C27 5.74 26.89 5.48 26.71 5.29C26.34 4.92 25.67 4.92 25.29 5.29ZM14 59C14.26 59 14.52 58.89 14.71 58.71C14.89 58.52 15 58.26 15 58C15 57.73 14.89 57.48 14.71 57.29C14.34 56.92 13.66 56.92 13.29 57.29C13.11 57.48 13 57.74 13 58C13 58.26 13.11 58.52 13.29 58.71C13.48 58.89 13.74 59 14 59ZM17 59C17.26 59 17.52 58.89 17.71 58.71C17.89 58.52 18 58.26 18 58C18 57.74 17.9 57.48 17.71 57.29C17.33 56.92 16.66 56.92 16.29 57.29C16.11 57.48 16 57.74 16 58C16 58.27 16.11 58.52 16.29 58.71C16.48 58.89 16.73 59 17 59ZM20 59C20.26 59 20.52 58.89 20.71 58.71C20.89 58.52 21 58.26 21 58C21 57.74 20.89 57.48 20.71 57.29C20.34 56.92 19.66 56.92 19.29 57.29C19.11 57.48 19 57.74 19 58C19 58.26 19.11 58.52 19.29 58.71C19.48 58.89 19.73 59 20 59ZM23 59C23.26 59 23.52 58.89 23.71 58.71C23.89 58.52 24 58.26 24 58C24 57.74 23.9 57.48 23.71 57.29C23.33 56.92 22.67 56.92 22.29 57.29C22.11 57.48 22 57.74 22 58C22 58.26 22.11 58.52 22.29 58.71C22.48 58.89 22.74 59 23 59ZM26 59C26.26 59 26.52 58.89 26.71 58.71C26.89 58.52 27 58.26 27 58C27 57.74 26.89 57.48 26.71 57.3C26.34 56.92 25.66 56.92 25.29 57.29C25.11 57.48 25 57.74 25 58C25 58.27 25.11 58.52 25.29 58.71C25.48 58.89 25.74 59 26 59ZM19.29 11.29L18.29 12.29C17.9 12.68 17.9 13.31 18.29 13.71C18.49 13.9 18.74 14 19 14C19.26 14 19.51 13.9 19.71 13.71L20.71 12.71C21.1 12.31 21.1 11.68 20.71 11.29C20.32 10.9 19.68 10.9 19.29 11.29ZM33.32 2L6.68 2C4.1 2 2 4.1 2 6.68L2 8L2 56L2 57.32C2 59.9 4.1 62 6.68 62L33.32 62C35.9 62 38 59.9 38 57.32L38 56L38 8L38 6.68C38 4.1 35.9 2 33.32 2ZM4 10L36 10L36 54L4 54L4 10ZM36 57.32C36 58.8 34.8 60 33.32 60L6.68 60C5.2 60 4 58.8 4 57.32L4 56L36 56L36 57.32ZM4 8L4 6.68C4 5.2 5.2 4 6.68 4L33.32 4C34.8 4 36 5.2 36 6.68L36 8L4 8Z" />
</svg>