<svg xmlns="http://www.w3.org/2000/svg" viewBox="0 0 57 57" width="57" height="57">
	<style>
		tspan { white-space:pre }
		.shp0 { fill: #ffc000 } 
	</style>
	<path id="Forma 1" class="shp0" d="M46.06 26.01C46.61 26.01 47.06 26.46 47.06 27.01C47.06 27.55 46.61 28 46.06 28C45.51 28 45.06 27.55 45.06 27.01C45.06 26.46 45.51 26.01 46.06 26.01ZM10.03 26.01C10.58 26.01 11.03 26.46 11.03 27.01C11.03 27.55 10.58 28 10.03 28C9.48 28 9.03 27.55 9.03 27.01C9.03 26.46 9.48 26.01 10.03 26.01ZM13.03 28.99C13.58 28.99 14.03 29.44 14.03 29.99C14.03 30.54 13.58 30.98 13.03 30.98C12.48 30.98 12.03 30.54 12.03 29.99C12.03 29.44 12.48 28.99 13.03 28.99ZM19.04 28.99C19.59 28.99 20.04 29.44 20.04 29.99C20.04 30.54 19.59 30.98 19.04 30.98C18.48 30.98 18.04 30.54 18.04 29.99C18.04 29.44 18.48 28.99 19.04 28.99ZM16.03 31.98C16.59 31.98 17.03 32.42 17.03 32.97C17.03 33.52 16.59 33.97 16.03 33.97C15.48 33.97 15.03 33.52 15.03 32.97C15.03 32.42 15.48 31.98 16.03 31.98ZM22.04 31.98C22.59 31.98 23.04 32.42 23.04 32.97C23.04 33.52 22.59 33.97 22.04 33.97C21.49 33.97 21.04 33.52 21.04 32.97C21.04 32.42 21.49 31.98 22.04 31.98ZM25.04 34.96C25.59 34.96 26.04 35.41 26.04 35.96C26.04 36.51 25.59 36.95 25.04 36.95C24.49 36.95 24.04 36.51 24.04 35.96C24.04 35.41 24.49 34.96 25.04 34.96ZM31.05 34.96C31.6 34.96 32.05 35.41 32.05 35.96C32.05 36.51 31.6 36.95 31.05 36.95C30.49 36.95 30.05 36.51 30.05 35.96C30.05 35.41 30.49 34.96 31.05 34.96ZM34.05 31.98C34.6 31.98 35.05 32.42 35.05 32.97C35.05 33.52 34.6 33.97 34.05 33.97C33.5 33.97 33.05 33.52 33.05 32.97C33.05 32.42 33.5 31.98 34.05 31.98ZM28.04 37.95C28.6 37.95 29.04 38.39 29.04 38.94C29.04 39.49 28.6 39.93 28.04 39.93C27.49 39.93 27.04 39.49 27.04 38.94C27.04 38.39 27.49 37.95 28.04 37.95ZM37.05 28.99C37.6 28.99 38.05 29.44 38.05 29.99C38.05 30.54 37.6 30.98 37.05 30.98C36.5 30.98 36.05 30.54 36.05 29.99C36.05 29.44 36.5 28.99 37.05 28.99ZM43.06 28.99C43.61 28.99 44.06 29.44 44.06 29.99C44.06 30.54 43.61 30.98 43.06 30.98C42.5 30.98 42.05 30.54 42.05 29.99C42.05 29.44 42.5 28.99 43.06 28.99ZM40.05 31.98C40.61 31.98 41.05 32.42 41.05 32.97C41.05 33.52 40.61 33.97 40.05 33.97C39.5 33.97 39.05 33.52 39.05 32.97C39.05 32.42 39.5 31.98 40.05 31.98ZM46.6 33.79L56 28.45L46.33 23L56 17.51L28.5 1.99L1 17.51L10.66 23L1 28.45L10.66 33.94L1 39.39L28.5 55L56 39.39L46.34 33.94L46.41 33.9C46.48 33.87 46.53 33.83 46.6 33.79ZM28.5 4.28L51.95 17.52L44.31 21.86L44.31 21.86L28.5 30.83L5.04 17.52L28.5 4.28ZM12.14 24.45C12.3 24.78 12.64 25.02 13.03 25.02C13.3 25.02 13.54 24.91 13.72 24.73L15.99 26.02C15.46 26.04 15.03 26.47 15.03 27.01C15.03 27.55 15.48 28 16.03 28C16.59 28 17.03 27.55 17.03 27.01C17.03 26.83 16.98 26.68 16.9 26.54L27.24 32.41C27.12 32.57 27.04 32.76 27.04 32.97C27.04 33.52 27.49 33.97 28.04 33.97C28.6 33.97 29.04 33.52 29.04 32.97C29.04 32.92 29.02 32.88 29.02 32.83L39.08 27.12C39.13 27.61 39.54 28 40.05 28C40.61 28 41.05 27.55 41.05 27C41.05 26.68 40.89 26.41 40.65 26.23L42.85 24.97C42.92 24.99 42.98 25.02 43.06 25.02C43.5 25.02 43.86 24.72 43.99 24.32L44.31 24.14L51.95 28.45L49.97 29.58C49.81 29.24 49.47 28.99 49.06 28.99C48.51 28.99 48.06 29.44 48.06 29.99C48.06 30.2 48.14 30.39 48.26 30.55L44.31 32.79L44.31 32.79L37.92 36.42C38 36.28 38.05 36.13 38.05 35.96C38.05 35.41 37.6 34.96 37.05 34.96C36.5 34.96 36.05 35.41 36.05 35.96C36.05 36.49 36.48 36.92 37.01 36.94L34.74 38.23C34.56 38.05 34.32 37.94 34.05 37.94C33.5 37.94 33.05 38.39 33.05 38.94C33.05 39.02 33.08 39.09 33.09 39.16L28.5 41.77L22.98 38.64C22.85 38.24 22.49 37.94 22.04 37.94C21.97 37.94 21.9 37.97 21.83 37.99L19.63 36.74C19.87 36.55 20.04 36.28 20.04 35.96C20.04 35.41 19.59 34.96 19.04 34.96C18.52 34.96 18.12 35.35 18.06 35.84L8 30.13C8 30.08 8.03 30.04 8.03 29.99C8.03 29.44 7.58 28.99 7.03 28.99C6.79 28.99 6.58 29.09 6.4 29.23L5.04 28.46L12.14 24.45ZM51.95 39.4L28.5 52.71L5.04 39.4L12.68 35.08L28.5 44.06L44.31 35.08L51.95 39.4Z" />
</svg>