<svg xmlns="http://www.w3.org/2000/svg" viewBox="0 0 60 61" width="60" height="61">
	<style>
		tspan { white-space:pre }
		.shp0 { fill: #ffc000 } 
	</style>
	<path id="Forma 1" class="shp0" d="M33.5 2C32.48 2 31.47 2.07 30.48 2.21C29.45 2.07 28.47 2 27.5 2C22.62 2 18.05 3.57 14.17 6.29C14.17 6.29 14.17 6.29 14.17 6.29C12.2 7.67 10.41 9.35 8.84 11.26C8.79 11.3 8.76 11.35 8.72 11.41C7.24 13.24 5.96 15.3 4.93 17.53C4.9 17.58 4.88 17.63 4.86 17.68C4.15 19.24 3.56 20.87 3.1 22.58C3.05 22.67 3.03 22.78 3.02 22.89C2.36 25.46 2 28.18 2 31C2 35.4 2.87 39.58 4.42 43.32C4.44 43.36 4.45 43.4 4.47 43.44C5.4 45.65 6.57 47.71 7.94 49.57C7.97 49.62 8 49.68 8.05 49.72C9.44 51.59 11.03 53.25 12.79 54.66C12.84 54.72 12.9 54.76 12.96 54.8C17.09 58.07 22.1 60 27.5 60C28.47 60 29.45 59.93 30.48 59.79C31.47 59.92 32.48 60 33.5 60C47.56 60 59 46.99 59 31C59 15.01 47.56 2 33.5 2ZM22.92 4.62C22.6 4.79 22.29 4.96 21.98 5.14C21.79 5.25 21.6 5.36 21.41 5.47C21.14 5.64 20.87 5.82 20.6 6L18.67 6C20.14 5.31 21.66 4.77 23.25 4.44C23.14 4.5 23.03 4.56 22.92 4.62ZM12.86 48L9.27 48C8.39 46.75 7.61 45.41 6.93 44L10.72 44C10.87 44.35 11.03 44.7 11.2 45.05C11.28 45.2 11.35 45.34 11.43 45.49C11.63 45.89 11.85 46.29 12.07 46.68C12.15 46.83 12.23 46.97 12.31 47.11C12.49 47.41 12.67 47.71 12.86 48ZM6.47 19L10.29 19C10.12 19.44 9.95 19.88 9.8 20.33C9.75 20.45 9.71 20.57 9.67 20.7C9.52 21.13 9.39 21.56 9.26 22L5.36 22C5.67 20.97 6.05 19.97 6.47 19ZM4 31C4 30.32 4.04 29.66 4.08 29L8.06 29C8.06 29.01 8.06 29.03 8.06 29.05C8.03 29.69 8 30.34 8 31C8 31.33 8.01 31.67 8.02 32L4.04 32C4.03 31.66 4 31.34 4 31ZM8.14 34C8.17 34.42 8.22 34.84 8.28 35.25C8.28 35.28 8.28 35.31 8.29 35.35C8.36 35.9 8.45 36.45 8.55 37L4.61 37C4.41 36.02 4.26 35.02 4.16 34L8.14 34ZM8.76 24C8.73 24.12 8.71 24.24 8.68 24.36C8.66 24.49 8.63 24.62 8.6 24.75C8.48 25.38 8.37 26.01 8.29 26.65C8.28 26.68 8.28 26.71 8.28 26.74C8.27 26.83 8.26 26.91 8.25 27L4.28 27C4.41 25.98 4.58 24.98 4.81 24L8.76 24ZM8.99 39C9.03 39.12 9.05 39.25 9.09 39.37C9.1 39.41 9.11 39.46 9.12 39.5C9.29 40.11 9.47 40.71 9.67 41.3C9.71 41.42 9.75 41.55 9.8 41.67C9.84 41.78 9.87 41.89 9.91 42L6.06 42C5.68 41.03 5.35 40.02 5.07 39L8.99 39L8.99 39ZM12.31 14.88C12.23 15.03 12.15 15.17 12.07 15.31C11.85 15.71 11.63 16.1 11.43 16.51C11.35 16.65 11.28 16.8 11.2 16.95C11.19 16.96 11.19 16.98 11.18 17L7.43 17C8.19 15.57 9.06 14.24 10.02 13L13.53 13C13.41 13.17 13.28 13.35 13.16 13.52C12.87 13.97 12.58 14.42 12.31 14.88ZM15.23 8L17.99 8C17.75 8.22 17.5 8.43 17.26 8.66C17.06 8.85 16.86 9.05 16.66 9.25C16.46 9.44 16.27 9.64 16.08 9.85C15.89 10.05 15.71 10.24 15.53 10.45C15.37 10.63 15.22 10.81 15.06 11L11.76 11C12.83 9.88 13.99 8.87 15.23 8ZM10.82 50L14.26 50C14.37 50.15 14.48 50.3 14.6 50.44C14.9 50.82 15.21 51.19 15.53 51.55C15.71 51.76 15.89 51.95 16.08 52.15C16.27 52.35 16.47 52.55 16.66 52.75C16.74 52.83 16.82 52.92 16.9 53L13.89 53C12.8 52.1 11.77 51.1 10.82 50ZM23.25 57.56C20.96 57.07 18.79 56.19 16.78 55L19.2 55C19.33 55.09 19.45 55.19 19.58 55.28C19.79 55.44 20 55.6 20.22 55.75C20.61 56.02 21.01 56.28 21.41 56.53C21.6 56.64 21.79 56.75 21.97 56.86C22.29 57.04 22.6 57.21 22.92 57.37C23.03 57.43 23.14 57.5 23.25 57.56ZM33.5 58C32.71 58 31.92 57.95 31.15 57.86L30.75 57.81C30.7 57.8 30.65 57.79 30.6 57.79C30.25 57.74 29.91 57.68 29.57 57.61C29.54 57.61 29.52 57.6 29.49 57.6C29.16 57.53 28.82 57.46 28.5 57.38C28.45 57.37 28.41 57.36 28.37 57.34C28.06 57.26 27.75 57.18 27.45 57.09C27.36 57.06 27.28 57.03 27.2 57.01C26.94 56.92 26.67 56.84 26.41 56.74C26.23 56.68 26.05 56.6 25.86 56.53C25.71 56.47 25.55 56.41 25.4 56.34C20.02 54.07 15.56 49.6 12.85 43.88C12.83 43.83 12.8 43.77 12.78 43.72C12.63 43.41 12.49 43.1 12.36 42.78C12.3 42.65 12.26 42.52 12.2 42.4C12.1 42.15 12 41.9 11.91 41.64C11.85 41.48 11.79 41.32 11.73 41.16C11.65 40.93 11.57 40.71 11.5 40.48C11.44 40.3 11.38 40.11 11.33 39.93C11.26 39.72 11.2 39.5 11.14 39.29C11.08 39.09 11.03 38.9 10.98 38.7C10.92 38.49 10.87 38.28 10.82 38.07C10.77 37.87 10.73 37.66 10.69 37.46C10.64 37.25 10.6 37.03 10.56 36.82C10.52 36.61 10.48 36.41 10.44 36.2C10.41 35.98 10.37 35.76 10.34 35.53C10.31 35.33 10.28 35.13 10.25 34.93C10.22 34.69 10.2 34.45 10.17 34.2C10.15 34.01 10.13 33.83 10.12 33.64C10.09 33.36 10.08 33.08 10.06 32.8C10.05 32.64 10.04 32.48 10.03 32.33C10.01 31.89 10 31.44 10 31C10 30.55 10.01 30.11 10.03 29.67C10.04 29.51 10.05 29.35 10.06 29.2C10.07 28.92 10.09 28.64 10.11 28.36C10.13 28.17 10.15 27.98 10.17 27.79C10.2 27.55 10.22 27.31 10.25 27.07C10.28 26.86 10.31 26.66 10.34 26.46C10.37 26.24 10.4 26.01 10.44 25.79C10.48 25.58 10.52 25.38 10.55 25.18C10.6 24.96 10.64 24.75 10.68 24.53C10.73 24.33 10.77 24.13 10.82 23.93C10.87 23.71 10.92 23.5 10.98 23.29C11.03 23.09 11.08 22.9 11.14 22.7C11.2 22.49 11.26 22.28 11.32 22.06C11.38 21.88 11.44 21.7 11.5 21.52C11.57 21.29 11.65 21.07 11.73 20.84C11.79 20.68 11.85 20.52 11.91 20.35C12 20.1 12.1 19.85 12.2 19.6C12.26 19.47 12.3 19.35 12.36 19.22C12.49 18.9 12.63 18.59 12.78 18.27C12.8 18.22 12.83 18.17 12.85 18.12C15.56 12.4 20.02 7.93 25.4 5.65C25.55 5.59 25.71 5.53 25.86 5.47C26.05 5.4 26.23 5.32 26.41 5.26C26.67 5.16 26.94 5.07 27.2 4.99C27.28 4.96 27.36 4.94 27.45 4.91C27.75 4.82 28.06 4.73 28.37 4.66C28.41 4.64 28.45 4.63 28.5 4.62C28.82 4.54 29.16 4.46 29.49 4.4C29.52 4.39 29.54 4.39 29.57 4.38C29.91 4.32 30.25 4.26 30.6 4.21C30.65 4.2 30.7 4.2 30.75 4.19L31.15 4.13C31.92 4.05 32.71 4 33.5 4C46.46 4 57 16.11 57 31C57 45.89 46.46 58 33.5 58ZM33.5 10.47C34.11 10.47 34.72 10.51 35.32 10.58C35.36 10.59 35.4 10.59 35.43 10.59C35.94 10.59 36.37 10.21 36.43 9.7C36.49 9.15 36.1 8.66 35.55 8.59C34.88 8.51 34.19 8.47 33.48 8.47C33.48 8.47 33.47 8.47 33.47 8.47L33.46 9.47L33.46 8.47C32.9 8.47 32.48 8.92 32.48 9.47C32.48 10.03 32.95 10.47 33.5 10.47ZM25.83 12.34C25.98 12.34 26.14 12.3 26.28 12.23C26.84 11.94 27.41 11.69 27.99 11.47C28.51 11.28 28.77 10.7 28.58 10.19C28.38 9.67 27.81 9.41 27.29 9.6C26.64 9.84 26 10.13 25.37 10.45C24.88 10.7 24.69 11.3 24.94 11.79C25.11 12.14 25.46 12.34 25.83 12.34ZM50.63 25.29C50.75 25.75 51.16 26.05 51.6 26.05C51.68 26.05 51.77 26.04 51.85 26.02C52.38 25.88 52.71 25.34 52.57 24.8C52.41 24.14 52.21 23.47 51.99 22.82C51.81 22.3 51.24 22.02 50.72 22.2C50.19 22.38 49.92 22.95 50.09 23.47C50.3 24.07 50.48 24.68 50.63 25.29ZM49.23 17.28C48.84 16.7 48.43 16.15 47.99 15.61C47.64 15.19 47.01 15.13 46.58 15.48C46.15 15.83 46.09 16.46 46.44 16.88C46.84 17.37 47.22 17.88 47.57 18.4C47.77 18.68 48.08 18.84 48.4 18.84C48.6 18.84 48.79 18.78 48.96 18.67C49.42 18.35 49.54 17.73 49.23 17.28ZM33.5 51.52C32.88 51.52 32.25 51.49 31.64 51.41C31.08 51.36 30.6 51.74 30.53 52.29C30.47 52.84 30.86 53.33 31.4 53.4C32.09 53.48 32.8 53.52 33.5 53.52L33.58 53.52C34.14 53.52 34.54 53.08 34.54 52.52C34.54 51.97 34.05 51.52 33.5 51.52ZM46.52 45.02C46.12 45.51 45.7 45.98 45.26 46.42C44.87 46.82 44.88 47.45 45.27 47.84C45.47 48.03 45.72 48.13 45.97 48.13C46.23 48.13 46.49 48.03 46.69 47.83C47.17 47.34 47.63 46.82 48.07 46.28C48.42 45.85 48.36 45.22 47.93 44.88C47.5 44.53 46.87 44.59 46.52 45.02ZM40.75 49.75C40.2 50.04 39.62 50.29 39.05 50.51C38.53 50.7 38.27 51.28 38.46 51.8C38.61 52.2 38.99 52.45 39.4 52.45C39.52 52.45 39.63 52.42 39.75 52.38C40.4 52.14 41.04 51.85 41.67 51.53C42.16 51.28 42.35 50.68 42.1 50.19C41.85 49.69 41.24 49.5 40.75 49.75ZM43.36 11.45C42.77 11.07 42.16 10.72 41.54 10.4C41.05 10.16 40.45 10.35 40.2 10.85C39.95 11.34 40.15 11.94 40.64 12.19C41.2 12.47 41.74 12.78 42.26 13.12C42.43 13.23 42.62 13.29 42.81 13.29C43.13 13.29 43.45 13.13 43.65 12.83C43.95 12.37 43.82 11.75 43.36 11.45ZM52.33 29.97C51.78 29.97 51.33 30.45 51.33 31C51.33 31.62 51.31 32.23 51.26 32.84C51.22 33.39 51.63 33.87 52.18 33.91C52.21 33.91 52.24 33.91 52.26 33.91C52.78 33.91 53.22 33.52 53.26 32.99C53.31 32.34 53.33 31.67 53.33 31L53.33 30.93C53.33 30.38 52.89 29.97 52.33 29.97ZM15.67 31C15.67 30.38 15.69 29.74 15.74 29.12C15.78 28.57 15.37 28.09 14.82 28.04C14.28 28.01 13.79 28.41 13.75 28.96C13.69 29.64 13.67 30.32 13.67 31L13.67 31.02C13.67 31.57 14.11 32.01 14.67 32.01C15.22 32.01 15.67 31.55 15.67 31ZM51.4 37.78C50.88 37.61 50.31 37.89 50.13 38.41C49.93 39.01 49.7 39.6 49.45 40.18C49.23 40.69 49.46 41.28 49.97 41.5C50.1 41.55 50.23 41.58 50.37 41.58C50.75 41.58 51.12 41.35 51.28 40.98C51.56 40.35 51.81 39.7 52.03 39.05C52.21 38.53 51.92 37.96 51.4 37.78ZM17.05 20.46C16.54 20.24 15.95 20.47 15.73 20.98C15.46 21.6 15.21 22.25 14.98 22.91C14.81 23.43 15.09 24 15.61 24.18C15.72 24.21 15.83 24.23 15.93 24.23C16.35 24.23 16.74 23.97 16.88 23.55C17.08 22.95 17.31 22.36 17.56 21.78C17.79 21.28 17.56 20.69 17.05 20.46ZM19.4 43.57C19.09 43.11 18.47 42.99 18.01 43.3C17.56 43.61 17.44 44.23 17.74 44.69C18.14 45.26 18.55 45.82 18.98 46.35C19.18 46.59 19.47 46.72 19.76 46.72C19.98 46.72 20.2 46.64 20.39 46.49C20.82 46.14 20.88 45.51 20.53 45.08C20.14 44.6 19.76 44.09 19.4 43.57ZM16.35 36.67C16.22 36.13 15.68 35.8 15.14 35.94C14.61 36.07 14.28 36.61 14.41 37.15C14.58 37.82 14.78 38.48 15 39.13C15.14 39.55 15.53 39.81 15.94 39.81C16.05 39.81 16.16 39.79 16.27 39.76C16.79 39.58 17.07 39.01 16.89 38.49C16.69 37.89 16.51 37.28 16.35 36.67ZM20.35 14.14C19.86 14.62 19.4 15.15 18.96 15.68C18.61 16.11 18.67 16.74 19.1 17.09C19.28 17.24 19.51 17.32 19.73 17.32C20.02 17.32 20.31 17.19 20.5 16.95C20.9 16.46 21.33 15.99 21.77 15.55C22.15 15.16 22.15 14.52 21.76 14.13C21.37 13.74 20.73 13.75 20.35 14.14ZM26.32 49.79C25.77 49.51 25.22 49.19 24.7 48.85C24.24 48.55 23.62 48.68 23.31 49.14C23.01 49.6 23.14 50.22 23.6 50.52C24.19 50.91 24.79 51.26 25.41 51.57C25.56 51.65 25.71 51.68 25.86 51.68C26.23 51.68 26.58 51.48 26.76 51.13C27.01 50.64 26.81 50.04 26.32 49.79ZM39.4 30.8C38.39 30.3 37.25 29.89 36.02 29.57C35.31 29.38 34.8 29.25 34.49 29.17L34.49 20.23C34.95 20.32 35.38 20.45 35.79 20.63C37.44 21.3 38.41 22.27 39.52 23.5L39.52 25.58C39.52 26.19 39.91 26.57 40.51 26.57C41.11 26.57 41.5 26.19 41.5 25.58L41.5 19.42C41.5 18.82 41.11 18.43 40.51 18.43C39.91 18.43 39.53 18.82 39.53 19.42L39.53 20.73C39.3 20.55 39.45 20.35 39.12 20.11C37.86 19.21 36.31 18.58 34.49 18.25L34.49 16.82C34.49 16.22 34.11 15.83 33.51 15.83C32.91 15.83 32.52 16.22 32.52 16.82L32.52 18.11C29.96 18.15 28.04 18.74 26.81 19.86C25.51 21.03 24.86 22.62 24.86 24.58C24.86 25.62 25.16 26.55 25.75 27.35C26.33 28.12 27.15 28.78 28.21 29.3C29.16 29.77 30.61 30.27 32.52 30.81L32.52 40.37C32 40.28 31.52 40.15 31.09 39.99C29.32 39.31 28.53 38.89 27.47 37.75L27.47 35.51C27.47 34.91 27.09 34.52 26.49 34.52C25.89 34.52 25.5 34.91 25.5 35.51L25.5 41.67C25.5 42.27 25.89 42.66 26.49 42.66C27.09 42.66 27.47 42.27 27.47 41.67L27.47 40.36C29.2 41.74 30.47 42.08 32.52 42.36L32.52 43.77C32.52 44.37 32.91 44.76 33.51 44.76C34.11 44.76 34.49 44.37 34.49 43.77L34.49 42.48C37.08 42.45 39.11 41.83 40.52 40.64C41.99 39.41 42.74 37.71 42.74 35.62C42.74 34.52 42.44 33.56 41.85 32.76C41.27 31.98 40.45 31.32 39.4 30.8ZM32.52 28.62C32.18 28.51 31.8 28.4 31.39 28.29C30.73 28.1 30.02 27.83 29.28 27.5C28.59 27.19 27.99 26.74 27.51 26.17C27.05 25.63 26.83 25.02 26.83 24.29C26.83 23.11 27.3 22.14 28.25 21.32C29.17 20.54 30.6 20.12 32.52 20.08L32.52 28.62L32.52 28.62ZM39.87 39.88C39.86 39.89 39.84 39.9 39.82 39.92C39.96 39.8 40.1 39.68 40.23 39.55C40.12 39.66 40 39.77 39.87 39.88ZM39.15 39.17C38.09 40.03 36.52 40.48 34.5 40.51L34.5 31.34L36.07 31.78C36.82 31.99 37.58 32.27 38.32 32.6C39.02 32.91 39.61 33.36 40.09 33.93C40.55 34.47 40.77 35.08 40.77 35.81C40.77 37.2 40.24 38.3 39.15 39.17Z" />
</svg>