<svg xmlns="http://www.w3.org/2000/svg" viewBox="0 0 49 63" width="49" height="63">
	<style>
		tspan { white-space:pre }
		.shp0 { fill: #ffc000 } 
	</style>
	<path id="Forma 1" class="shp0" d="M47 10.08C32.4 10.08 25.86 2.56 25.77 2.45C25.39 2 24.61 2 24.23 2.45C24.17 2.53 17.69 10.08 3 10.08C2.45 10.08 2 10.53 2 11.08L2 30.13C2 40.55 6.69 50.45 14.55 56.61C17.71 59.1 21.13 60.9 24.71 61.96C24.81 61.99 24.9 62 25 62C25.1 62 25.19 61.99 25.28 61.96C28.87 60.9 32.29 59.1 35.45 56.61C43.31 50.45 48 40.55 48 30.13L48 11.08C48 10.53 47.55 10.08 47 10.08ZM46 30.13C46 39.94 41.6 49.26 34.22 55.05C31.33 57.31 28.23 58.96 25 59.96C21.76 58.96 18.66 57.31 15.78 55.05C8.4 49.26 4 39.94 4 30.13L4 12.07C16.24 11.8 22.86 6.58 25 4.53C27.13 6.58 33.76 11.8 46 12.07L46 30.13ZM24.44 10.08C21.42 12.13 16.27 14.77 8.87 15.71C8.37 15.77 8 16.2 8 16.7L8 30.14C8 38.73 11.83 46.87 18.25 51.91C20.28 53.49 22.42 54.74 24.63 55.6C24.75 55.65 24.88 55.67 25 55.67C25.12 55.67 25.25 55.65 25.36 55.6C27.57 54.74 29.72 53.49 31.75 51.91C38.17 46.87 42 38.73 42 30.14L42 16.7C42 16.2 41.63 15.77 41.13 15.71C33.72 14.77 28.58 12.13 25.56 10.08C25.22 9.85 24.78 9.85 24.44 10.08ZM40 17.57L40 30.13C40 38.12 36.45 45.67 30.51 50.34C28.75 51.71 26.9 52.81 25 53.6C23.1 52.81 21.25 51.71 19.49 50.34C13.55 45.67 10 38.12 10 30.13L10 17.57C16.9 16.55 21.87 14.13 25 12.11C28.12 14.13 33.1 16.55 40 17.57ZM15.71 31.34C15.32 30.95 14.68 30.95 14.29 31.34C13.9 31.73 13.9 32.36 14.29 32.75L22.29 40.74C22.48 40.93 22.73 41.03 23 41.03C23.01 41.03 23.02 41.03 23.03 41.03C23.31 41.02 23.57 40.9 23.75 40.69L37.75 24.72C38.12 24.3 38.07 23.67 37.66 23.31C37.24 22.94 36.61 22.99 36.25 23.4L22.95 38.57L15.71 31.34Z" />
</svg>