<svg xmlns="http://www.w3.org/2000/svg" viewBox="0 0 59 59" width="59" height="59">
	<style>
		tspan { white-space:pre }
		.shp0 { fill: #ffc000 } 
	</style>
	<path id="Forma 1" class="shp0" d="M49.53 2L10.47 2C5.8 2 2 5.8 2 10.46L2 49.53C2 54.2 5.8 58 10.47 58L49.53 58C54.2 58 58 54.2 58 49.53L58 10.46C58 5.8 54.2 2 49.53 2ZM56 49.53C56 53.1 53.1 56 49.53 56L10.47 56C6.9 56 4 53.1 4 49.53L4 32.41L10.25 26.17C11.04 26.69 11.98 27 13 27C14.02 27 14.96 26.69 15.75 26.17L25.83 36.24C25.31 37.04 25 37.98 25 39C25 41.75 27.24 44 30 44C32.76 44 35 41.75 35 39C35 37.98 34.69 37.04 34.17 36.24L48 22.41L48 29C48 29.55 48.45 30 49 30C49.55 30 50 29.55 50 29L50 19L40 19C39.45 19 39 19.45 39 20C39 20.55 39.45 21 40 21L46.59 21L32.75 34.83C31.96 34.31 31.02 34 30 34C28.98 34 28.04 34.31 27.25 34.83L17.17 24.75C17.69 23.96 18 23.02 18 22C18 19.24 15.76 17 13 17C10.24 17 8 19.24 8 22C8 23.02 8.31 23.96 8.83 24.75L4 29.58L4 10.46C4 6.9 6.9 4 10.47 4L49.53 4C53.1 4 56 6.9 56 10.46L56 49.53ZM13 25C11.35 25 10 23.65 10 22C10 20.34 11.35 19 13 19C14.65 19 16 20.34 16 22C16 23.65 14.65 25 13 25ZM33 39C33 40.65 31.65 42 30 42C28.35 42 27 40.65 27 39C27 37.34 28.35 36 30 36C31.65 36 33 37.34 33 39Z" />
</svg>