<svg xmlns="http://www.w3.org/2000/svg" viewBox="0 0 63 54" width="63" height="54">
	<style>
		tspan { white-space:pre }
		.shp0 { fill: #ffc000 } 
	</style>
	<path id="Forma 1" class="shp0" d="M52.98 18.19C52.45 9.19 45.03 2 36.08 2C30.65 2 25.4 4.66 22.14 9.01C22.06 8.97 21.98 8.94 21.91 8.91C21.71 8.81 21.51 8.72 21.3 8.64C21.19 8.59 21.08 8.55 20.96 8.51C20.76 8.44 20.55 8.38 20.34 8.32C20.23 8.29 20.11 8.26 20 8.23C19.77 8.18 19.54 8.14 19.31 8.1C19.21 8.09 19.11 8.07 19.01 8.06C18.68 8.02 18.34 8 18 8C13.04 8 9 12.03 9 17C9 17.13 9.01 17.25 9.02 17.38C4.86 19.65 2 24.4 2 29.15C2 36.24 7.76 42 14.84 42L20 42C20.55 42 21 41.55 21 41C21 40.45 20.55 40 20 40L14.84 40C8.86 40 4 35.13 4 29.15C4 25 6.7 20.69 10.43 18.9L11 18.63L11 18C11 17.88 11.01 17.76 11.01 17.63L11.03 17.45L11.01 17.25C11.01 17.17 11 17.08 11 17C11 13.14 14.14 10 18 10C18.31 10 18.61 10.03 18.92 10.07C18.99 10.08 19.07 10.09 19.15 10.1C19.42 10.15 19.68 10.2 19.94 10.28C19.97 10.29 20.01 10.3 20.04 10.31C20.33 10.39 20.61 10.5 20.88 10.63C20.95 10.66 21.02 10.69 21.09 10.73C21.33 10.85 21.56 10.98 21.79 11.12C23.72 12.37 25 14.54 25 17C25 17.55 25.45 18 26 18C26.55 18 27 17.55 27 17C27 14.24 25.75 11.78 23.8 10.13C26.67 6.38 31.39 4 36.08 4C43.83 4 50.26 10.13 50.93 17.89C49.91 17.81 48.38 17.78 46.85 18.01C46.3 18.09 45.93 18.6 46.01 19.15C46.09 19.64 46.51 20 47 20C47.05 20 47.1 20 47.15 19.99C49.38 19.65 51.7 19.97 51.83 19.99C56.49 20.87 60 25.16 60 29.97C60 35.5 55.5 40 49.97 40L46 40C45.45 40 45 40.45 45 41C45 41.55 45.45 42 46 42L49.97 42C56.6 42 62 36.6 62 29.97C62 24.48 58.17 19.56 52.98 18.19ZM40.29 43.29L34 49.58L34 29C34 28.45 33.55 28 33 28C32.45 28 32 28.45 32 29L32 49.58L25.71 43.29C25.32 42.9 24.68 42.9 24.29 43.29C23.9 43.68 23.9 44.31 24.29 44.71L32.29 52.7C32.38 52.8 32.49 52.87 32.62 52.92C32.74 52.97 32.87 53 33 53C33.13 53 33.26 52.97 33.38 52.92C33.5 52.87 33.62 52.8 33.71 52.7L41.71 44.71C42.1 44.31 42.1 43.68 41.71 43.29C41.32 42.9 40.68 42.9 40.29 43.29Z" />
</svg>