<svg xmlns="http://www.w3.org/2000/svg" viewBox="0 0 63 63" width="63" height="63">
	<style>
		tspan { white-space:pre }
		.shp0 { fill: #ffc000 } 
	</style>
	<path id="Forma 1" class="shp0" d="M61 10C61.55 10 62 9.55 62 9L62 3C62 2.45 61.55 2 61 2L55 2C54.45 2 54 2.45 54 3L54 8.58L34.02 28.57C33.7 28.38 33.35 28.23 32.98 28.14C32.53 15.59 22.41 5.47 9.86 5.02C9.42 3.29 7.87 2 6 2C3.79 2 2 3.79 2 6C2 8.2 3.79 10 6 10C7.85 10 9.4 8.73 9.85 7.02C21.31 7.46 30.54 16.69 30.98 28.15C29.27 28.6 28 30.15 28 32C28 32.74 28.22 33.42 28.57 34.02L8.59 54L3 54C2.45 54 2 54.45 2 55L2 61C2 61.55 2.45 62 3 62L9 62C9.55 62 10 61.55 10 61L10 55.41L29.98 35.43C30.52 35.75 31.14 35.95 31.81 35.98L28.53 53.76C28.45 54.19 28.66 54.63 29.05 54.83C29.2 54.91 29.35 54.94 29.51 54.94C29.78 54.94 30.04 54.84 30.23 54.64L35.58 49.1C39.93 55.07 46.76 58.71 54.13 58.97C54.57 60.71 56.13 62 58 62C60.21 62 62 60.2 62 58C62 55.79 60.21 54 58 54C56.15 54 54.61 55.27 54.15 56.97C47.62 56.72 41.55 53.59 37.57 48.42L45.24 50.62C45.66 50.73 46.11 50.57 46.35 50.2C46.59 49.82 46.56 49.34 46.27 49.01L34.45 35.14C35.38 34.41 36 33.28 36 32C36 31.26 35.78 30.57 35.43 29.98L55.41 10L61 10ZM6 8C4.9 8 4 7.1 4 6C4 4.9 4.9 4 6 4C7.1 4 8 4.9 8 6C8 7.1 7.1 8 6 8ZM58 56C59.1 56 60 56.9 60 58C60 59.1 59.1 60 58 60C56.9 60 56 59.1 56 58C56 56.9 56.9 56 58 56ZM56 4L60 4L60 8L56 8L56 4ZM32 30C33.1 30 34 30.9 34 32C34 33.1 33.1 34 32 34C31.45 34 30.95 33.77 30.59 33.41C30.59 33.41 30.59 33.41 30.59 33.41C30.59 33.41 30.58 33.41 30.58 33.41C30.22 33.05 30 32.55 30 32C30 30.9 30.9 30 32 30ZM8 60L4 60L4 56L8 56L8 60ZM36.5 46.04C36.14 45.94 35.76 46.04 35.51 46.3L31.1 50.86L33.61 37.25L42.6 47.78L36.5 46.04Z" />
</svg>