<svg xmlns="http://www.w3.org/2000/svg" viewBox="0 0 63 63" width="63" height="63">
	<style>
		tspan { white-space:pre }
		.shp0 { fill: #ffc000 } 
	</style>
	<path id="Forma 1" class="shp0" d="M32 54.01C44.13 54.01 54 44.14 54 32C54 19.87 44.13 10 32 10C19.87 10 10 19.87 10 32C10 44.14 19.87 54.01 32 54.01ZM32 12C43.03 12 52 20.97 52 32C52 43.03 43.03 52.01 32 52.01C20.97 52.01 12 43.03 12 32C12 20.97 20.97 12 32 12ZM32 17C32.55 17 33 16.55 33 16L33 14C33 13.45 32.55 13 32 13C31.45 13 31 13.45 31 14L31 16C31 16.55 31.45 17 32 17ZM32 47.01C31.45 47.01 31 47.45 31 48.01L31 50.01C31 50.56 31.45 51.01 32 51.01C32.55 51.01 33 50.56 33 50.01L33 48.01C33 47.45 32.55 47.01 32 47.01ZM48 33L50 33C50.55 33 51 32.56 51 32C51 31.45 50.55 31 50 31L48 31C47.45 31 47 31.45 47 32C47 32.56 47.45 33 48 33ZM16 31L14 31C13.45 31 13 31.45 13 32C13 32.56 13.45 33 14 33L16 33C16.55 33 17 32.56 17 32C17 31.45 16.55 31 16 31ZM21 43.01C21.26 43.01 21.51 42.91 21.71 42.71L29.98 34.44C30.58 34.79 31.26 35 32 35C34.21 35 36 33.21 36 31C36 29.14 34.72 27.59 33 27.15L33 22C33 21.45 32.55 21 32 21C31.45 21 31 21.45 31 22L31 27.15C29.28 27.59 28 29.14 28 31C28 31.74 28.21 32.43 28.57 33.02L20.29 41.3C19.9 41.69 19.9 42.32 20.29 42.71C20.49 42.91 20.74 43.01 21 43.01ZM32 29C33.1 29 34 29.9 34 31C34 32.11 33.1 33 32 33C30.9 33 30 32.11 30 31C30 29.9 30.9 29 32 29ZM12.08 12L20 12C20.55 12 21 11.55 21 11C21 10.45 20.55 10 20 10L14.7 10C19.62 6.11 25.67 4 32 4C47.44 4 60 16.56 60 32C60 32.56 60.45 33 61 33C61.55 33 62 32.56 62 32C62 15.46 48.54 2 32 2C25.02 2 18.36 4.41 13 8.81L13 3C13 2.45 12.55 2 12 2C11.45 2 11 2.45 11 3L11 12L11.89 12C11.96 12.01 12.02 12.01 12.08 12ZM6.82 44.23C6.57 43.73 5.98 43.53 5.48 43.77C4.98 44.02 4.78 44.62 5.02 45.11C5.19 45.47 5.55 45.68 5.92 45.68C6.06 45.68 6.21 45.65 6.35 45.57C6.85 45.34 7.06 44.73 6.82 44.23ZM9.87 49.15C9.53 48.71 8.91 48.63 8.47 48.97C8.03 49.31 7.95 49.94 8.29 50.37C8.49 50.63 8.79 50.76 9.08 50.76C9.3 50.76 9.51 50.69 9.7 50.55C10.13 50.21 10.21 49.58 9.87 49.15ZM8.22 46.77C7.93 46.3 7.31 46.16 6.84 46.45C6.37 46.75 6.23 47.36 6.52 47.83C6.71 48.13 7.04 48.3 7.37 48.3C7.55 48.3 7.73 48.25 7.9 48.15C8.37 47.86 8.51 47.23 8.22 46.77ZM10.35 51.31C9.95 51.69 9.94 52.32 10.32 52.72C10.51 52.93 10.78 53.03 11.04 53.03C11.29 53.03 11.54 52.94 11.73 52.75C12.13 52.37 12.15 51.74 11.76 51.34C11.38 50.94 10.75 50.93 10.35 51.31ZM12.46 53.44C12.1 53.86 12.15 54.49 12.57 54.85C12.76 55.01 12.99 55.09 13.22 55.09C13.5 55.09 13.78 54.97 13.98 54.74C14.34 54.32 14.29 53.69 13.87 53.33C13.45 52.97 12.82 53.02 12.46 53.44ZM4.11 40.02C4.64 39.88 4.97 39.34 4.84 38.8C4.7 38.27 4.16 37.94 3.62 38.08C3.09 38.22 2.76 38.75 2.9 39.3C3.01 39.74 3.42 40.06 3.87 40.06C3.95 40.06 4.03 40.04 4.11 40.02ZM3.43 37.1C3.98 37.01 4.36 36.51 4.28 35.96C4.2 35.41 3.69 35.03 3.15 35.11C2.6 35.19 2.22 35.7 2.3 36.24C2.37 36.74 2.8 37.1 3.29 37.1C3.34 37.1 3.38 37.1 3.43 37.1ZM5.68 41.57C5.5 41.05 4.92 40.78 4.4 40.97C3.88 41.16 3.62 41.73 3.81 42.25C3.95 42.66 4.34 42.91 4.74 42.91C4.86 42.91 4.97 42.89 5.09 42.85C5.61 42.67 5.87 42.1 5.68 41.57ZM3.02 34.12C3.03 34.12 3.05 34.12 3.06 34.12C3.61 34.1 4.04 33.63 4.02 33.08C4 32.53 3.53 32.1 2.98 32.12C2.43 32.14 2 32.6 2.02 33.16C2.04 33.69 2.49 34.12 3.02 34.12ZM14.78 55.35C14.46 55.8 14.58 56.42 15.03 56.74C15.21 56.86 15.4 56.91 15.6 56.91C15.92 56.91 16.23 56.76 16.42 56.48C16.74 56.03 16.62 55.4 16.17 55.09C15.71 54.78 15.09 54.89 14.78 55.35ZM50.94 52.62L50.94 52.61C50.53 52.99 50.5 53.62 50.88 54.03C51.08 54.24 51.35 54.35 51.62 54.35C51.86 54.35 52.1 54.26 52.29 54.09C52.7 53.71 52.72 53.08 52.35 52.68C51.98 52.27 51.34 52.24 50.94 52.62ZM52.97 50.55C52.6 50.96 52.64 51.59 53.05 51.96C53.24 52.13 53.48 52.21 53.71 52.21C53.99 52.21 54.26 52.1 54.46 51.87C54.83 51.46 54.79 50.83 54.38 50.46C53.96 50.1 53.33 50.13 52.97 50.55ZM54.77 48.28C54.45 48.73 54.55 49.36 55 49.68C55.18 49.81 55.38 49.86 55.58 49.86C55.9 49.86 56.2 49.72 56.4 49.45C56.72 49 56.62 48.38 56.17 48.05C55.72 47.73 55.09 47.84 54.77 48.28ZM48.71 54.46C48.27 54.79 48.18 55.42 48.51 55.86C48.7 56.13 49 56.26 49.31 56.26C49.52 56.26 49.73 56.2 49.9 56.07C50.35 55.74 50.44 55.11 50.11 54.67C49.78 54.22 49.15 54.13 48.71 54.46ZM46.3 56.07C45.83 56.36 45.67 56.97 45.96 57.44C46.14 57.76 46.48 57.93 46.82 57.93C46.99 57.93 47.17 57.89 47.33 57.79C47.8 57.51 47.96 56.89 47.67 56.42C47.39 55.95 46.78 55.79 46.3 56.07ZM57.7 45.47C57.22 45.19 56.61 45.37 56.33 45.85L56.34 45.85C56.06 46.32 56.23 46.94 56.71 47.21C56.86 47.3 57.03 47.34 57.2 47.34C57.55 47.34 57.89 47.15 58.07 46.84C58.35 46.36 58.18 45.75 57.7 45.47ZM60.95 34C60.4 33.94 59.91 34.34 59.85 34.89C59.79 35.44 60.19 35.93 60.74 36C60.78 36 60.81 36 60.85 36C61.35 36 61.79 35.61 61.84 35.1C61.9 34.55 61.5 34.05 60.95 34ZM60.59 36.98C60.05 36.86 59.52 37.21 59.41 37.75C59.29 38.29 59.64 38.82 60.18 38.93C60.25 38.96 60.32 38.96 60.39 38.96C60.85 38.96 61.27 38.64 61.36 38.17C61.48 37.62 61.13 37.1 60.59 36.98ZM59.92 39.9C59.4 39.73 58.83 40.02 58.67 40.55C58.5 41.07 58.79 41.64 59.31 41.81C59.41 41.84 59.52 41.85 59.62 41.85C60.04 41.85 60.43 41.58 60.57 41.17C60.74 40.64 60.45 40.07 59.92 39.9ZM58.96 42.75C58.45 42.52 57.86 42.76 57.64 43.26C57.41 43.77 57.64 44.35 58.15 44.58C58.28 44.64 58.42 44.67 58.55 44.67C58.94 44.67 59.3 44.44 59.47 44.06C59.69 43.56 59.46 42.97 58.96 42.75ZM43.75 57.43C43.24 57.66 43.03 58.25 43.26 58.75C43.43 59.12 43.79 59.33 44.17 59.33C44.31 59.33 44.45 59.3 44.59 59.24C45.09 59.01 45.31 58.41 45.07 57.91C44.84 57.41 44.25 57.19 43.75 57.43ZM26.78 59.52C26.24 59.42 25.71 59.77 25.61 60.32C25.51 60.86 25.86 61.38 26.41 61.49C26.47 61.5 26.53 61.5 26.59 61.5C27.06 61.5 27.48 61.17 27.58 60.69C27.68 60.15 27.32 59.62 26.78 59.52ZM29.65 59.91C29.1 59.86 28.61 60.27 28.57 60.82C28.52 61.38 28.93 61.86 29.48 61.91C29.48 61.9 29.48 61.9 29.48 61.9C29.51 61.91 29.54 61.91 29.56 61.91C30.08 61.91 30.52 61.51 30.56 60.99C30.6 60.44 30.2 59.96 29.65 59.91ZM23.97 58.84C23.44 58.68 22.88 58.98 22.72 59.5C22.57 60.03 22.86 60.59 23.39 60.75C23.49 60.78 23.59 60.79 23.68 60.79C24.11 60.79 24.51 60.51 24.64 60.08C24.8 59.55 24.5 58.99 23.97 58.84ZM21.24 57.86C20.73 57.65 20.15 57.89 19.94 58.4C19.72 58.91 19.96 59.49 20.47 59.71C20.6 59.76 20.73 59.78 20.86 59.78C21.25 59.78 21.62 59.55 21.78 59.17C21.99 58.66 21.75 58.07 21.24 57.86ZM35.43 59.8C34.88 59.87 34.49 60.37 34.56 60.91C34.62 61.42 35.05 61.79 35.55 61.79C35.59 61.79 35.63 61.79 35.67 61.78C35.67 61.79 35.67 61.79 35.67 61.79C36.22 61.72 36.61 61.22 36.54 60.67C36.48 60.12 35.98 59.73 35.43 59.8ZM41.06 58.51C40.54 58.68 40.26 59.25 40.44 59.78C40.58 60.19 40.97 60.45 41.38 60.45C41.49 60.45 41.6 60.43 41.71 60.4C42.23 60.22 42.51 59.65 42.33 59.13C42.15 58.6 41.58 58.33 41.06 58.51ZM38.28 59.3C37.74 59.42 37.4 59.96 37.53 60.5C37.63 60.96 38.05 61.27 38.5 61.27C38.58 61.27 38.65 61.27 38.73 61.25C39.26 61.13 39.6 60.59 39.48 60.05C39.35 59.51 38.82 59.18 38.28 59.3ZM32.54 60C31.99 60.01 31.55 60.47 31.56 61.02C31.57 61.57 32.02 62 32.56 62C32.57 62 32.57 62 32.58 62C33.13 61.99 33.57 61.54 33.56 60.98C33.55 60.43 33.09 59.99 32.54 60ZM18.63 56.61C18.15 56.34 17.54 56.52 17.27 57.01C17.01 57.49 17.19 58.1 17.68 58.36C17.83 58.45 17.99 58.49 18.15 58.49C18.51 58.49 18.85 58.3 19.03 57.96C19.3 57.48 19.12 56.87 18.63 56.61Z" />
</svg>