<svg xmlns="http://www.w3.org/2000/svg" viewBox="0 0 64 57" width="64" height="57">
	<style>
		tspan { white-space:pre }
		.shp0 { fill: #ffc000 } 
	</style>
	<path id="Forma 1" class="shp0" d="M59.95 4.05C58.63 2.73 56.88 2 55.01 2C53.14 2 51.39 2.73 50.07 4.05L47.2 6.91L25.16 31.37L25.16 31.37L21.14 35.83L21.14 35.83L15.53 42.06C15.25 42.02 14.96 42 14.67 42L14.26 42C12.1 42 8.08 42 8.08 46.92C8.08 51.86 2.92 53.98 2.7 54.07C2.26 54.24 2 54.71 2.09 55.18C2.18 55.66 2.59 56 3.07 56L15.49 56C17.3 56 18.68 55.52 19.62 54.57C21.01 53.15 21.08 51.1 21.06 49.35C21.12 49.31 21.18 49.29 21.24 49.24L28.22 42.92C28.22 42.92 28.22 42.92 28.22 42.92L32.67 38.89C32.67 38.89 32.68 38.89 32.68 38.89L57.13 16.78L59.95 13.95C61.27 12.62 62 10.87 62 9C62 7.13 61.27 5.37 59.95 4.05ZM27.59 40.8L23.26 36.46L25.94 33.49L30.56 38.12L27.59 40.8ZM18.19 53.17C17.65 53.72 16.74 54 15.49 54L6.57 54C8.29 52.56 10.08 50.26 10.08 46.92C10.08 44.29 11.42 44 14.26 44L14.67 44C15.02 44 15.34 44.04 15.66 44.11C15.67 44.11 15.67 44.12 15.68 44.12C16.12 44.21 16.53 44.38 16.9 44.59C16.94 44.61 16.97 44.62 17.01 44.64C17.16 44.73 17.3 44.84 17.44 44.95C17.49 44.99 17.55 45.03 17.6 45.08C17.73 45.19 17.86 45.32 17.97 45.45C18.01 45.49 18.05 45.53 18.09 45.58C18.21 45.72 18.32 45.88 18.42 46.04C18.43 46.05 18.43 46.06 18.44 46.08C18.78 46.65 18.99 47.3 19.03 48.01C19.03 48.02 19.03 48.02 19.03 48.03C19.04 48.1 19.05 48.16 19.05 48.22C19.05 48.45 19.05 48.69 19.06 48.94C19.08 50.48 19.11 52.23 18.19 53.17ZM20.9 46.85C20.49 45.02 19.29 43.52 17.64 42.7L21.92 37.95L26.1 42.14L20.9 46.85ZM58.54 12.53L55.75 15.33L32.04 36.77L27.28 32.01L48.65 8.29L51.48 5.46C52.42 4.52 53.68 4 55.01 4C56.34 4 57.6 4.52 58.54 5.46C59.49 6.41 60 7.66 60 9C60 10.33 59.48 11.59 58.54 12.53Z" />
</svg>